<?xml version="1.0" encoding="UTF-8" standalone="no"?><!DOCTYPE svg PUBLIC "-//W3C//DTD SVG 1.1//EN" "http://www.w3.org/Graphics/SVG/1.1/DTD/svg11.dtd"><svg width="100%" height="100%" viewBox="0 0 40 44" version="1.1" xmlns="http://www.w3.org/2000/svg" xmlns:xlink="http://www.w3.org/1999/xlink" xml:space="preserve" xmlns:serif="http://www.serif.com/" style="fill-rule:evenodd;clip-rule:evenodd;stroke-linejoin:round;stroke-miterlimit:1.41421;"><rect id="Artboard" x="-76" y="-112" width="337.67" height="184.618" style="fill:none;"/><g><path d="M5.474,22.135c0,-7.896 6.195,-14.359 13.979,-14.827l2.256,-2.948c-0.453,-0.035 -0.903,-0.069 -1.364,-0.069c-9.855,0 -17.845,7.99 -17.845,17.844c0,6.53 3.517,12.223 8.75,15.332l0.775,-3.014c-3.95,-2.675 -6.551,-7.201 -6.551,-12.318Z" style="fill:#0a5d7a;fill-rule:nonzero;"/><path d="M29.377,6.765l-0.816,2.986c4.008,2.669 6.655,7.22 6.655,12.384c0,7.897 -6.196,14.36 -13.979,14.825l-2.257,2.95c0.453,0.036 0.904,0.07 1.365,0.07c9.855,0 17.845,-7.99 17.845,-17.845c0,-6.555 -3.545,-12.268 -8.813,-15.37Z" style="fill:#0a5d7a;fill-rule:nonzero;"/><path d="M32.241,17.674l-8.922,0l0.874,-3.209l1.672,-6.125l0.785,-2.882l1.13,-4.142l-2.763,3.614l-1.98,2.59l-4.949,6.471l-9.64,12.606l8.923,0l-0.87,3.189l-1.676,6.145l-0.785,2.882l-1.13,4.142l2.763,-3.614l1.98,-2.591l5.012,-6.555l9.576,-12.521Z" style="fill:#0a5d7a;fill-rule:nonzero;"/></g></svg>