<?xml version="1.0" encoding="UTF-8" standalone="no"?><!DOCTYPE svg PUBLIC "-//W3C//DTD SVG 1.1//EN" "http://www.w3.org/Graphics/SVG/1.1/DTD/svg11.dtd"><svg width="100%" height="100%" viewBox="0 0 45 51" version="1.1" xmlns="http://www.w3.org/2000/svg" xmlns:xlink="http://www.w3.org/1999/xlink" xml:space="preserve" xmlns:serif="http://www.serif.com/" style="fill-rule:evenodd;clip-rule:evenodd;stroke-linejoin:round;stroke-miterlimit:1.41421;"><rect id="Artboard" x="-232" y="-28" width="337.67" height="184.618" style="fill:none;"/><path d="M27.612,44.035l-9.6,0c-0.6,0 -1,0.4 -1,1c0,0.6 0.4,1 1,1l9.6,0c0.6,0 1,-0.4 1,-1c0,-0.6 -0.4,-1 -1,-1Z" style="fill:#0a5d7a;fill-rule:nonzero;"/><path d="M22.812,9.835c-0.5,0 -0.9,0 -1.4,0.1c-5.3,0.6 -9.8,4.9 -10.6,10.2c-0.5,3.4 0.3,6.8 2.5,9.5c2.3,2.9 3.5,6.1 3.5,9.5c0,0.6 0.4,1 1,1l10.2,0c0.6,0 1,-0.4 1,-1c0,-3.5 1.1,-6.7 3.2,-9.1c1.9,-2.2 2.9,-5 2.9,-7.9c-0.1,-6.8 -5.6,-12.3 -12.3,-12.3Zm0.6,28.2l-1.3,0l-0.6,-9.8c0.8,0.1 1.7,0.1 2.5,0l-0.6,9.8Zm7.1,-9.4c-2.2,2.5 -3.4,5.8 -3.6,9.4l-1.5,0l0.6,-10.1c2.5,-0.5 4.6,-1.6 4.6,-3.6c0,-1.8 -1.4,-3.2 -3.2,-3.2c-1.8,0 -3.2,1.4 -3.2,3.1l-0.1,1.9c-0.9,0.1 -1.9,0.1 -2.8,0l-0.1,-1.8c0,-1.8 -1.4,-3.2 -3.2,-3.2c-1.8,0 -3.2,1.4 -3.2,3.2c0,0.9 0.5,2.2 2.8,3.1c0.5,0.2 1.2,0.4 1.8,0.5l0.6,10.1l-1.5,0c-0.2,-3.4 -1.5,-6.7 -3.9,-9.7c-1.8,-2.2 -2.5,-5.1 -2.1,-7.9c0.7,-4.4 4.4,-8 8.9,-8.5c0.4,0 0.8,-0.1 1.2,-0.1c5.6,0 10.2,4.6 10.2,10.2c0.2,2.4 -0.7,4.8 -2.3,6.6Zm-4.3,-2.7l0.1,-1.5c0,-0.7 0.5,-1.2 1.2,-1.2c0.7,0 1.2,0.5 1.2,1.2c0,0.5 -0.9,1.1 -2.5,1.5Zm-6.8,0c-1.6,-0.4 -2.5,-1 -2.5,-1.5c0,-0.7 0.5,-1.2 1.2,-1.2c0.7,0 1.2,0.5 1.2,1.3l0.1,1.4Z" style="fill:#0a5d7a;fill-rule:nonzero;"/><path d="M43.012,21.335l-5.5,0c-0.6,0 -1,0.4 -1,1c0,0.6 0.4,1 1,1l5.5,0c0.6,0 1,-0.4 1,-1c0,-0.6 -0.5,-1 -1,-1Z" style="fill:#0a5d7a;fill-rule:nonzero;"/><path d="M9.112,22.335c0,-0.6 -0.4,-1 -1,-1l-5.5,0c-0.6,0 -1,0.4 -1,1c0,0.6 0.4,1 1,1l5.5,0c0.6,0 1,-0.5 1,-1Z" style="fill:#0a5d7a;fill-rule:nonzero;"/><path d="M22.812,8.335c0.6,0 1,-0.4 1,-1l0,-5.2c0,-0.6 -0.4,-1 -1,-1c-0.6,0 -1,0.4 -1,1l0,5.2c0,0.6 0.4,1 1,1Z" style="fill:#0a5d7a;fill-rule:nonzero;"/><path d="M37.812,7.335c-0.4,-0.4 -1,-0.4 -1.4,0l-3.8,3.8c-0.4,0.4 -0.4,1 0,1.4c0.5,0.4 1,0.4 1.4,0l3.8,-3.8c0.4,-0.4 0.4,-1 0,-1.4Z" style="fill:#0a5d7a;fill-rule:nonzero;"/><path d="M13.112,32.035c-0.4,-0.4 -1,-0.4 -1.4,0l-3.9,3.9c-0.4,0.4 -0.4,1 0,1.4c0.5,0.4 1,0.4 1.4,0l3.9,-3.9c0.4,-0.4 0.4,-1 0,-1.4Z" style="fill:#0a5d7a;fill-rule:nonzero;"/><path d="M37.812,35.935l-3.9,-3.9c-0.4,-0.4 -1,-0.4 -1.4,0c-0.4,0.4 -0.4,1 0,1.4l3.9,3.9c0.5,0.4 1,0.4 1.4,0c0.4,-0.4 0.4,-1 0,-1.4Z" style="fill:#0a5d7a;fill-rule:nonzero;"/><path d="M13.012,11.035l-3.7,-3.7c-0.4,-0.4 -1,-0.4 -1.4,0c-0.4,0.4 -0.4,1 0,1.4l3.7,3.7c0.5,0.4 1,0.4 1.4,0c0.4,-0.3 0.4,-1 0,-1.4Z" style="fill:#0a5d7a;fill-rule:nonzero;"/><path d="M27.612,40.935l-9.6,0c-0.6,0 -1,0.4 -1,1c0,0.6 0.4,1 1,1l9.6,0c0.6,0 1,-0.4 1,-1c0,-0.6 -0.4,-1 -1,-1Z" style="fill:#0a5d7a;fill-rule:nonzero;"/><path d="M25.112,47.135l-4.2,0c-0.6,0 -1,0.4 -1,1c0,0.6 0.4,1 1,1l4.2,0c0.6,0 1,-0.4 1,-1c0,-0.6 -0.5,-1 -1,-1Z" style="fill:#0a5d7a;fill-rule:nonzero;"/></svg>