<?xml version="1.0" encoding="UTF-8" standalone="no"?><!DOCTYPE svg PUBLIC "-//W3C//DTD SVG 1.1//EN" "http://www.w3.org/Graphics/SVG/1.1/DTD/svg11.dtd"><svg width="100%" height="100%" viewBox="0 0 38 50" version="1.1" xmlns="http://www.w3.org/2000/svg" xmlns:xlink="http://www.w3.org/1999/xlink" xml:space="preserve" xmlns:serif="http://www.serif.com/" style="fill-rule:evenodd;clip-rule:evenodd;stroke-linejoin:round;stroke-miterlimit:1.41421;"><path d="M19.6,48.462c-0.287,0.274 -0.739,0.274 -1.026,0c-0.035,-0.034 -0.102,-0.099 -0.198,-0.193c-0.159,-0.156 -0.342,-0.338 -0.549,-0.547c-0.588,-0.594 -1.244,-1.277 -1.949,-2.038c-2.015,-2.176 -4.029,-4.549 -5.911,-7.045c-3.145,-4.17 -5.597,-8.255 -7.09,-12.108c-1.038,-2.682 -1.588,-5.199 -1.588,-7.526c0,-9.83 7.969,-17.798 17.798,-17.798c9.829,0 17.798,7.968 17.798,17.798c0,2.327 -0.55,4.844 -1.589,7.526c-1.492,3.853 -3.944,7.938 -7.089,12.108c-1.882,2.496 -3.896,4.869 -5.911,7.045c-0.705,0.761 -1.361,1.444 -1.949,2.038c-0.207,0.209 -0.391,0.391 -0.549,0.547c-0.096,0.094 -0.163,0.159 -0.198,0.193Zm-0.307,-1.784c0.577,-0.582 1.221,-1.253 1.915,-2.002c1.983,-2.141 3.966,-4.477 5.815,-6.93c3.069,-4.07 5.455,-8.043 6.89,-11.751c0.977,-2.522 1.488,-4.864 1.488,-6.99c0,-9.011 -7.304,-16.315 -16.314,-16.315c-9.01,0 -16.315,7.304 -16.315,16.315c0,2.126 0.512,4.468 1.489,6.99c1.435,3.708 3.82,7.681 6.89,11.751c1.849,2.453 3.832,4.789 5.815,6.93c0.694,0.749 1.338,1.42 1.915,2.002c0.071,0.073 0.14,0.142 0.206,0.207c0.066,-0.065 0.134,-0.134 0.206,-0.207Zm-0.206,-18.774c-4.915,0 -8.899,-3.985 -8.899,-8.899c0,-4.915 3.984,-8.899 8.899,-8.899c4.915,0 8.899,3.984 8.899,8.899c0,4.914 -3.984,8.899 -8.899,8.899Zm0,-1.484c4.096,0 7.416,-3.32 7.416,-7.415c0,-4.096 -3.32,-7.416 -7.416,-7.416c-4.096,0 -7.416,3.32 -7.416,7.416c0,4.095 3.32,7.415 7.416,7.415Zm0.742,-10.382l0,3.401l1.265,1.266c0.29,0.29 0.29,0.759 0,1.049c-0.289,0.289 -0.759,0.289 -1.048,0l-1.483,-1.483c-0.139,-0.139 -0.218,-0.328 -0.218,-0.525l0,-3.708c0,-0.409 0.332,-0.741 0.742,-0.741c0.41,0 0.742,0.332 0.742,0.741Z" style="fill:#0a5d7a;stroke:#0a5d7a;stroke-width:1px;"/></svg>