<svg xmlns="http://www.w3.org/2000/svg" width="1440" height="900"><path d="M712,491L560,525L698,587Z" fill="#e7efe7" stroke="#e7efe7" stroke-width="1.51"/><path d="M560,525L646,641L698,587Z" fill="#ddece1" stroke="#ddece1" stroke-width="1.51"/><path d="M560,525L575,662L646,641Z" fill="#d7e8d8" stroke="#d7e8d8" stroke-width="1.51"/><path d="M712,491L685,385L560,525Z" fill="#f3f2eb" stroke="#f3f2eb" stroke-width="1.51"/><path d="M685,385L507,432L560,525Z" fill="#f6f0e2" stroke="#f6f0e2" stroke-width="1.51"/><path d="M560,525L451,651L575,662Z" fill="#d7e5ce" stroke="#d7e5ce" stroke-width="1.51"/><path d="M698,587L831,613L712,491Z" fill="#ddefed" stroke="#ddefed" stroke-width="1.51"/><path d="M712,491L816,424L685,385Z" fill="#f3f4f0" stroke="#f3f4f0" stroke-width="1.51"/><path d="M646,641L792,635L698,587Z" fill="#d3eae5" stroke="#d3eae5" stroke-width="1.51"/><path d="M775,798L792,635L646,641Z" fill="#bee2db" stroke="#bee2db" stroke-width="1.51"/><path d="M507,432L469,433L560,525Z" fill="#f2ebd6" stroke="#f2ebd6" stroke-width="1.51"/><path d="M492,345L469,433L507,432Z" fill="#f4e7ca" stroke="#f4e7ca" stroke-width="1.51"/><path d="M831,613L816,424L712,491Z" fill="#e3f1ee" stroke="#e3f1ee" stroke-width="1.51"/><path d="M792,635L831,613L698,587Z" fill="#ceeae5" stroke="#ceeae5" stroke-width="1.51"/><path d="M424,616L451,651L560,525Z" fill="#d8e1c6" stroke="#d8e1c6" stroke-width="1.51"/><path d="M469,433L424,616L560,525Z" fill="#e7e6cd" stroke="#e7e6cd" stroke-width="1.51"/><path d="M685,385L492,345L507,432Z" fill="#f6ecd3" stroke="#f6ecd3" stroke-width="1.51"/><path d="M816,424L833,294L685,385Z" fill="#efefe2" stroke="#efefe2" stroke-width="1.51"/><path d="M685,385L577,232L492,345Z" fill="#f6e9c9" stroke="#f6e9c9" stroke-width="1.51"/><path d="M922,468L853,371L816,424Z" fill="#e4efea" stroke="#e4efea" stroke-width="1.51"/><path d="M831,613L922,468L816,424Z" fill="#dbefeb" stroke="#dbefeb" stroke-width="1.51"/><path d="M918,726L901,618L831,613Z" fill="#b5e2db" stroke="#b5e2db" stroke-width="1.51"/><path d="M391,307L373,462L469,433Z" fill="#efdfba" stroke="#efdfba" stroke-width="1.51"/><path d="M469,433L373,462L424,616Z" fill="#e7e0c3" stroke="#e7e0c3" stroke-width="1.51"/><path d="M901,618L922,468L831,613Z" fill="#ccebe6" stroke="#ccebe6" stroke-width="1.51"/><path d="M626,852L775,798L646,641Z" fill="#aed3c9" stroke="#aed3c9" stroke-width="1.51"/><path d="M792,635L918,726L831,613Z" fill="#b9e2dc" stroke="#b9e2dc" stroke-width="1.51"/><path d="M583,835L646,641L575,662Z" fill="#bcdbc9" stroke="#bcdbc9" stroke-width="1.51"/><path d="M833,294L762,252L685,385Z" fill="#f0ebd7" stroke="#f0ebd7" stroke-width="1.51"/><path d="M853,371L833,294L816,424Z" fill="#e8eddf" stroke="#e8eddf" stroke-width="1.51"/><path d="M995,405L833,294L853,371Z" fill="#e1ebdb" stroke="#e1ebdb" stroke-width="1.51"/><path d="M762,252L577,232L685,385Z" fill="#f4e8cc" stroke="#f4e8cc" stroke-width="1.51"/><path d="M492,345L391,307L469,433Z" fill="#f1e1ba" stroke="#f1e1ba" stroke-width="1.51"/><path d="M451,651L583,835L575,662Z" fill="#bcd8c0" stroke="#bcd8c0" stroke-width="1.51"/><path d="M424,616L353,645L451,651Z" fill="#cbd5b4" stroke="#cbd5b4" stroke-width="1.51"/><path d="M276,593L353,645L424,616Z" fill="#cdd1ab" stroke="#cdd1ab" stroke-width="1.51"/><path d="M514,889L583,835L391,845Z" fill="#99b69c" stroke="#99b69c" stroke-width="1.51"/><path d="M583,835L626,852L646,641Z" fill="#abcebe" stroke="#abcebe" stroke-width="1.51"/><path d="M443,256L391,307L492,345Z" fill="#efdbab" stroke="#efdbab" stroke-width="1.51"/><path d="M577,232L443,256L492,345Z" fill="#f0ddb0" stroke="#f0ddb0" stroke-width="1.51"/><path d="M775,798L918,726L792,635Z" fill="#aadbd3" stroke="#aadbd3" stroke-width="1.51"/><path d="M1025,515L995,405L922,468Z" fill="#cee9e4" stroke="#cee9e4" stroke-width="1.51"/><path d="M775,798L905,817L918,726Z" fill="#95ccc4" stroke="#95ccc4" stroke-width="1.51"/><path d="M642,895L802,853L775,798Z" fill="#96c2bc" stroke="#96c2bc" stroke-width="1.51"/><path d="M626,852L642,895L775,798Z" fill="#9ac1b8" stroke="#9ac1b8" stroke-width="1.51"/><path d="M583,835L642,895L626,852Z" fill="#98bcad" stroke="#98bcad" stroke-width="1.51"/><path d="M514,889L642,895L583,835Z" fill="#97b8a6" stroke="#97b8a6" stroke-width="1.51"/><path d="M762,252L718,168L577,232Z" fill="#eeddba" stroke="#eeddba" stroke-width="1.51"/><path d="M577,232L431,156L443,256Z" fill="#ead29b" stroke="#ead29b" stroke-width="1.51"/><path d="M716,142L718,168L761,84Z" fill="#e5c9a3" stroke="#e5c9a3" stroke-width="1.51"/><path d="M373,462L276,593L424,616Z" fill="#dbd7b3" stroke="#dbd7b3" stroke-width="1.51"/><path d="M391,845L583,835L451,651Z" fill="#aac4a8" stroke="#aac4a8" stroke-width="1.51"/><path d="M256,442L276,593L373,462Z" fill="#e1d0ab" stroke="#e1d0ab" stroke-width="1.51"/><path d="M922,468L995,405L853,371Z" fill="#dcece4" stroke="#dcece4" stroke-width="1.51"/><path d="M870,196L718,168L762,252Z" fill="#e6dbb8" stroke="#e6dbb8" stroke-width="1.51"/><path d="M1025,515L922,468L901,618Z" fill="#c7e9e3" stroke="#c7e9e3" stroke-width="1.51"/><path d="M352,798L451,651L353,645Z" fill="#bbcca7" stroke="#bbcca7" stroke-width="1.51"/><path d="M1011,660L1025,515L901,618Z" fill="#b4e2da" stroke="#b4e2da" stroke-width="1.51"/><path d="M918,726L1011,660L901,618Z" fill="#a7ddd4" stroke="#a7ddd4" stroke-width="1.51"/><path d="M802,853L905,817L775,798Z" fill="#8fc4be" stroke="#8fc4be" stroke-width="1.51"/><path d="M1059,826L1011,660L918,726Z" fill="#8acdc3" stroke="#8acdc3" stroke-width="1.51"/><path d="M191,684L352,798L353,645Z" fill="#b4bd93" stroke="#b4bd93" stroke-width="1.51"/><path d="M313,284L256,442L373,462Z" fill="#e9d2a6" stroke="#e9d2a6" stroke-width="1.51"/><path d="M718,168L716,142L577,232Z" fill="#ebd5ac" stroke="#ebd5ac" stroke-width="1.51"/><path d="M870,196L762,252L833,294Z" fill="#e5e0c2" stroke="#e5e0c2" stroke-width="1.51"/><path d="M352,798L391,845L451,651Z" fill="#aabf9c" stroke="#aabf9c" stroke-width="1.51"/><path d="M1034,188L870,196L833,294Z" fill="#d8dab8" stroke="#d8dab8" stroke-width="1.51"/><path d="M391,307L313,284L373,462Z" fill="#ecd7a7" stroke="#ecd7a7" stroke-width="1.51"/><path d="M322,226L313,284L391,307Z" fill="#e6cc90" stroke="#e6cc90" stroke-width="1.51"/><path d="M322,226L391,307L443,256Z" fill="#e8cf95" stroke="#e8cf95" stroke-width="1.51"/><path d="M524,55L431,156L577,232Z" fill="#e5c68b" stroke="#e5c68b" stroke-width="1.51"/><path d="M352,798L351,857L391,845Z" fill="#98ae89" stroke="#98ae89" stroke-width="1.51"/><path d="M391,845L392,931L514,889Z" fill="#92a98a" stroke="#92a98a" stroke-width="1.51"/><path d="M258,834L351,857L352,798Z" fill="#96a881" stroke="#96a881" stroke-width="1.51"/><path d="M109,539L170,559L256,442Z" fill="#d7b98f" stroke="#d7b98f" stroke-width="1.51"/><path d="M431,156L322,226L443,256Z" fill="#e4c98a" stroke="#e4c98a" stroke-width="1.51"/><path d="M995,405L1034,188L833,294Z" fill="#d5e1c8" stroke="#d5e1c8" stroke-width="1.51"/><path d="M1025,515L1058,383L995,405Z" fill="#c8e5de" stroke="#c8e5de" stroke-width="1.51"/><path d="M1105,500L1058,383L1025,515Z" fill="#bee3dc" stroke="#bee3dc" stroke-width="1.51"/><path d="M802,853L845,935L905,817Z" fill="#84bab4" stroke="#84bab4" stroke-width="1.51"/><path d="M1179,646L1124,613L1161,775Z" fill="#7bc6bb" stroke="#7bc6bb" stroke-width="1.51"/><path d="M755,1042L845,935L802,853Z" fill="#7faca6" stroke="#7faca6" stroke-width="1.51"/><path d="M755,1042L802,853L642,895Z" fill="#8ab1ab" stroke="#8ab1ab" stroke-width="1.51"/><path d="M716,142L524,55L577,232Z" fill="#e7c998" stroke="#e7c998" stroke-width="1.51"/><path d="M870,196L761,84L718,168Z" fill="#e1cca7" stroke="#e1cca7" stroke-width="1.51"/><path d="M929,94L761,84L870,196Z" fill="#d7c49c" stroke="#d7c49c" stroke-width="1.51"/><path d="M1124,613L1105,500L1025,515Z" fill="#acded5" stroke="#acded5" stroke-width="1.51"/><path d="M276,593L191,684L353,645Z" fill="#c4c097" stroke="#c4c097" stroke-width="1.51"/><path d="M256,442L170,559L276,593Z" fill="#d8c29a" stroke="#d8c29a" stroke-width="1.51"/><path d="M225,303L256,442L313,284Z" fill="#e5c691" stroke="#e5c691" stroke-width="1.51"/><path d="M597,1047L636,1029L642,895Z" fill="#85a293" stroke="#85a293" stroke-width="1.51"/><path d="M351,857L392,931L391,845Z" fill="#91a682" stroke="#91a682" stroke-width="1.51"/><path d="M221,916L392,931L351,857Z" fill="#8b9973" stroke="#8b9973" stroke-width="1.51"/><path d="M196,235L225,303L313,284Z" fill="#dfba7b" stroke="#dfba7b" stroke-width="1.51"/><path d="M170,559L191,684L276,593Z" fill="#c7b98e" stroke="#c7b98e" stroke-width="1.51"/><path d="M431,156L264,96L322,226Z" fill="#dab66f" stroke="#dab66f" stroke-width="1.51"/><path d="M322,226L196,235L313,284Z" fill="#dfbc7b" stroke="#dfbc7b" stroke-width="1.51"/><path d="M639,-19L524,55L716,142Z" fill="#ddb482" stroke="#ddb482" stroke-width="1.51"/><path d="M191,684L258,834L352,798Z" fill="#a2aa80" stroke="#a2aa80" stroke-width="1.51"/><path d="M1011,660L1124,613L1025,515Z" fill="#a6ddd3" stroke="#a6ddd3" stroke-width="1.51"/><path d="M1059,826L918,726L905,817Z" fill="#82c4bc" stroke="#82c4bc" stroke-width="1.51"/><path d="M597,1047L642,895L514,889Z" fill="#8baa98" stroke="#8baa98" stroke-width="1.51"/><path d="M1038,904L1059,826L905,817Z" fill="#6db5ac" stroke="#6db5ac" stroke-width="1.51"/><path d="M524,55L448,46L431,156Z" fill="#dab170" stroke="#dab170" stroke-width="1.51"/><path d="M639,-19L509,31L524,55Z" fill="#d5ab74" stroke="#d5ab74" stroke-width="1.51"/><path d="M636,1029L755,1042L642,895Z" fill="#85a49a" stroke="#85a49a" stroke-width="1.51"/><path d="M388,987L597,1047L514,889Z" fill="#879e85" stroke="#879e85" stroke-width="1.51"/><path d="M509,31L448,46L524,55Z" fill="#d5aa6c" stroke="#d5aa6c" stroke-width="1.51"/><path d="M1153,202L1034,188L1058,383Z" fill="#bdd1b1" stroke="#bdd1b1" stroke-width="1.51"/><path d="M1058,383L1034,188L995,405Z" fill="#cadfc9" stroke="#cadfc9" stroke-width="1.51"/><path d="M761,84L639,-19L716,142Z" fill="#e0b98e" stroke="#e0b98e" stroke-width="1.51"/><path d="M1034,188L929,94L870,196Z" fill="#cec9a1" stroke="#cec9a1" stroke-width="1.51"/><path d="M392,931L388,987L514,889Z" fill="#8a9f80" stroke="#8a9f80" stroke-width="1.51"/><path d="M221,916L388,987L392,931Z" fill="#84936d" stroke="#84936d" stroke-width="1.51"/><path d="M845,935L1038,904L905,817Z" fill="#75b3ab" stroke="#75b3ab" stroke-width="1.51"/><path d="M597,1047L755,1042L636,1029Z" fill="#809a8e" stroke="#809a8e" stroke-width="1.51"/><path d="M929,94L775,18L761,84Z" fill="#d5b68b" stroke="#d5b68b" stroke-width="1.51"/><path d="M191,684L118,712L258,834Z" fill="#a6a375" stroke="#a6a375" stroke-width="1.51"/><path d="M170,559L118,712L191,684Z" fill="#baac7e" stroke="#baac7e" stroke-width="1.51"/><path d="M41,472L109,539L256,442Z" fill="#d7b48b" stroke="#d7b48b" stroke-width="1.51"/><path d="M225,303L72,334L256,442Z" fill="#e0b882" stroke="#e0b882" stroke-width="1.51"/><path d="M264,96L196,235L322,226Z" fill="#d7af66" stroke="#d7af66" stroke-width="1.51"/><path d="M1105,500L1154,366L1058,383Z" fill="#bbddd2" stroke="#bbddd2" stroke-width="1.51"/><path d="M1202,523L1154,366L1105,500Z" fill="#aed7d0" stroke="#aed7d0" stroke-width="1.51"/><path d="M1161,775L1124,613L1011,660Z" fill="#84cec2" stroke="#84cec2" stroke-width="1.51"/><path d="M958,1074L1038,904L845,935Z" fill="#65a098" stroke="#65a098" stroke-width="1.51"/><path d="M775,18L639,-19L761,84Z" fill="#d8b18a" stroke="#d8b18a" stroke-width="1.51"/><path d="M393,-161L335,-10L448,46Z" fill="#bd8f4e" stroke="#bd8f4e" stroke-width="1.51"/><path d="M1124,613L1202,523L1105,500Z" fill="#a1d5cd" stroke="#a1d5cd" stroke-width="1.51"/><path d="M1161,775L1011,660L1059,826Z" fill="#75c3b8" stroke="#75c3b8" stroke-width="1.51"/><path d="M109,539L118,712L170,559Z" fill="#c1ad82" stroke="#c1ad82" stroke-width="1.51"/><path d="M258,834L221,916L351,857Z" fill="#8e9870" stroke="#8e9870" stroke-width="1.51"/><path d="M1179,646L1202,523L1124,613Z" fill="#91cdc5" stroke="#91cdc5" stroke-width="1.51"/><path d="M118,712L221,916L258,834Z" fill="#939569" stroke="#939569" stroke-width="1.51"/><path d="M335,-10L264,96L448,46Z" fill="#cb9b51" stroke="#cb9b51" stroke-width="1.51"/><path d="M448,46L264,96L431,156Z" fill="#d6ac64" stroke="#d6ac64" stroke-width="1.51"/><path d="M1187,944L1161,775L1059,826Z" fill="#50a79e" stroke="#50a79e" stroke-width="1.51"/><path d="M1179,646L1238,627L1202,523Z" fill="#88c7c0" stroke="#88c7c0" stroke-width="1.51"/><path d="M755,1042L838,1082L845,935Z" fill="#759d96" stroke="#759d96" stroke-width="1.51"/><path d="M597,1047L838,1082L755,1042Z" fill="#7c9891" stroke="#7c9891" stroke-width="1.51"/><path d="M1034,188L1041,76L929,94Z" fill="#c1ba8f" stroke="#c1ba8f" stroke-width="1.51"/><path d="M929,94L910,-17L775,18Z" fill="#c8ad84" stroke="#c8ad84" stroke-width="1.51"/><path d="M1153,202L1090,140L1034,188Z" fill="#b6c298" stroke="#b6c298" stroke-width="1.51"/><path d="M1153,202L1058,383L1154,366Z" fill="#b9d5bc" stroke="#b9d5bc" stroke-width="1.51"/><path d="M52,241L72,334L196,235Z" fill="#d0a363" stroke="#d0a363" stroke-width="1.51"/><path d="M196,235L72,334L225,303Z" fill="#daae6f" stroke="#daae6f" stroke-width="1.51"/><path d="M109,539L0,572L118,712Z" fill="#b9a57b" stroke="#b9a57b" stroke-width="1.51"/><path d="M72,334L41,472L256,442Z" fill="#dab185" stroke="#dab185" stroke-width="1.51"/><path d="M1090,140L1041,76L1034,188Z" fill="#baba8f" stroke="#baba8f" stroke-width="1.51"/><path d="M775,18L740,-80L639,-19Z" fill="#cda681" stroke="#cda681" stroke-width="1.51"/><path d="M1258,757L1238,627L1179,646Z" fill="#6ebcb2" stroke="#6ebcb2" stroke-width="1.51"/><path d="M1202,523L1245,481L1154,366Z" fill="#a7d0ca" stroke="#a7d0ca" stroke-width="1.51"/><path d="M1320,578L1245,481L1202,523Z" fill="#90c5bf" stroke="#90c5bf" stroke-width="1.51"/><path d="M1090,140L1100,40L1041,76Z" fill="#b1ac7d" stroke="#b1ac7d" stroke-width="1.51"/><path d="M1201,192L1153,202L1154,366Z" fill="#adc4a4" stroke="#adc4a4" stroke-width="1.51"/><path d="M965,8L910,-17L929,94Z" fill="#bfaa80" stroke="#bfaa80" stroke-width="1.51"/><path d="M1041,76L965,8L929,94Z" fill="#bead80" stroke="#bead80" stroke-width="1.51"/><path d="M388,987L305,1044L597,1047Z" fill="#7e8f6e" stroke="#7e8f6e" stroke-width="1.51"/><path d="M597,1047L73,1080L838,1082Z" fill="#7c8d72" stroke="#7c8d72" stroke-width="1.51"/><path d="M221,916L305,1044L388,987Z" fill="#7e875f" stroke="#7e875f" stroke-width="1.51"/><path d="M542,-88L448,46L509,31Z" fill="#cca167" stroke="#cca167" stroke-width="1.51"/><path d="M910,-17L740,-80L775,18Z" fill="#c4a37e" stroke="#c4a37e" stroke-width="1.51"/><path d="M542,-88L509,31L639,-19Z" fill="#cba16e" stroke="#cba16e" stroke-width="1.51"/><path d="M169,74L52,241L196,235Z" fill="#ca9a4f" stroke="#ca9a4f" stroke-width="1.51"/><path d="M714,-107L542,-88L639,-19Z" fill="#c29b72" stroke="#c29b72" stroke-width="1.51"/><path d="M838,1082L958,1074L845,935Z" fill="#6c9991" stroke="#6c9991" stroke-width="1.51"/><path d="M1038,904L1117,963L1059,826Z" fill="#56a59b" stroke="#56a59b" stroke-width="1.51"/><path d="M72,334L6,460L41,472Z" fill="#cfa67e" stroke="#cfa67e" stroke-width="1.51"/><path d="M41,472L0,572L109,539Z" fill="#c4a680" stroke="#c4a680" stroke-width="1.51"/><path d="M335,-10L252,23L264,96Z" fill="#c38f42" stroke="#c38f42" stroke-width="1.51"/><path d="M740,-80L714,-107L639,-19Z" fill="#c49d7a" stroke="#c49d7a" stroke-width="1.51"/><path d="M933,-102L714,-107L740,-80Z" fill="#b59878" stroke="#b59878" stroke-width="1.51"/><path d="M933,-102L740,-80L910,-17Z" fill="#b69a78" stroke="#b69a78" stroke-width="1.51"/><path d="M118,712L36,752L221,916Z" fill="#938f63" stroke="#938f63" stroke-width="1.51"/><path d="M6,460L0,572L41,472Z" fill="#c4a27e" stroke="#c4a27e" stroke-width="1.51"/><path d="M1161,775L1258,757L1179,646Z" fill="#65b7ad" stroke="#65b7ad" stroke-width="1.51"/><path d="M1089,1063L1117,963L1038,904Z" fill="#49958b" stroke="#49958b" stroke-width="1.51"/><path d="M-45,671L36,752L118,712Z" fill="#9b946a" stroke="#9b946a" stroke-width="1.51"/><path d="M221,916L183,986L305,1044Z" fill="#7b7c52" stroke="#7b7c52" stroke-width="1.51"/><path d="M103,959L183,986L221,916Z" fill="#7a764a" stroke="#7a764a" stroke-width="1.51"/><path d="M1041,76L1100,40L965,8Z" fill="#b1a578" stroke="#b1a578" stroke-width="1.51"/><path d="M1153,202L1196,82L1090,140Z" fill="#aab186" stroke="#aab186" stroke-width="1.51"/><path d="M1289,287L1201,192L1154,366Z" fill="#a7c2a6" stroke="#a7c2a6" stroke-width="1.51"/><path d="M169,74L196,235L264,96Z" fill="#cc994b" stroke="#cc994b" stroke-width="1.51"/><path d="M72,334L-38,382L6,460Z" fill="#caa176" stroke="#caa176" stroke-width="1.51"/><path d="M252,23L169,74L264,96Z" fill="#c48a3a" stroke="#c48a3a" stroke-width="1.51"/><path d="M1238,627L1320,578L1202,523Z" fill="#86c3bc" stroke="#86c3bc" stroke-width="1.51"/><path d="M1315,870L1258,757L1161,775Z" fill="#45a198" stroke="#45a198" stroke-width="1.51"/><path d="M1196,82L1100,40L1090,140Z" fill="#a9a678" stroke="#a9a678" stroke-width="1.51"/><path d="M965,8L933,-102L910,-17Z" fill="#b39c76" stroke="#b39c76" stroke-width="1.51"/><path d="M1390,706L1320,578L1238,627Z" fill="#6cb3ab" stroke="#6cb3ab" stroke-width="1.51"/><path d="M1334,367L1289,287L1154,366Z" fill="#a1c2ae" stroke="#a1c2ae" stroke-width="1.51"/><path d="M1117,963L1187,944L1059,826Z" fill="#4a9c93" stroke="#4a9c93" stroke-width="1.51"/><path d="M1089,1063L1187,944L1117,963Z" fill="#3f8c82" stroke="#3f8c82" stroke-width="1.51"/><path d="M183,986L73,1080L305,1044Z" fill="#716a3e" stroke="#716a3e" stroke-width="1.51"/><path d="M36,752L103,959L221,916Z" fill="#827e54" stroke="#827e54" stroke-width="1.51"/><path d="M1334,367L1154,366L1245,481Z" fill="#a2c7bc" stroke="#a2c7bc" stroke-width="1.51"/><path d="M1201,192L1196,82L1153,202Z" fill="#a4b087" stroke="#a4b087" stroke-width="1.51"/><path d="M6,460L-117,501L0,572Z" fill="#ba9b79" stroke="#ba9b79" stroke-width="1.51"/><path d="M52,241L-38,382L72,334Z" fill="#caa069" stroke="#caa069" stroke-width="1.51"/><path d="M52,241L22,208L-38,382Z" fill="#c3975c" stroke="#c3975c" stroke-width="1.51"/><path d="M169,74L22,208L52,241Z" fill="#c18f46" stroke="#c18f46" stroke-width="1.51"/><path d="M252,23L134,54L169,74Z" fill="#bd802f" stroke="#bd802f" stroke-width="1.51"/><path d="M70,16L134,54L55,-104Z" fill="#a3671b" stroke="#a3671b" stroke-width="1.51"/><path d="M322,-107L252,23L335,-10Z" fill="#b7853e" stroke="#b7853e" stroke-width="1.51"/><path d="M1049,-122L933,-102L965,8Z" fill="#a3936f" stroke="#a3936f" stroke-width="1.51"/><path d="M958,1074L1089,1063L1038,904Z" fill="#529288" stroke="#529288" stroke-width="1.51"/><path d="M134,54L22,208L169,74Z" fill="#bd8335" stroke="#bd8335" stroke-width="1.51"/><path d="M36,752L-11,795L103,959Z" fill="#7f7c54" stroke="#7f7c54" stroke-width="1.51"/><path d="M0,572L-45,671L118,712Z" fill="#a89971" stroke="#a89971" stroke-width="1.51"/><path d="M-176,605L-45,671L0,572Z" fill="#a1916f" stroke="#a1916f" stroke-width="1.51"/><path d="M-45,671L-11,795L36,752Z" fill="#8f8861" stroke="#8f8861" stroke-width="1.51"/><path d="M1398,432L1334,367L1245,481Z" fill="#97bdb5" stroke="#97bdb5" stroke-width="1.51"/><path d="M393,-161L322,-107L335,-10Z" fill="#ae8242" stroke="#ae8242" stroke-width="1.51"/><path d="M393,-161L448,46L542,-88Z" fill="#bc9158" stroke="#bc9158" stroke-width="1.51"/><path d="M1100,40L1049,-122L965,8Z" fill="#a5986f" stroke="#a5986f" stroke-width="1.51"/><path d="M1358,70L1196,82L1201,192Z" fill="#969c71" stroke="#969c71" stroke-width="1.51"/><path d="M1390,219L1201,192L1289,287Z" fill="#97af8e" stroke="#97af8e" stroke-width="1.51"/><path d="M1049,-122L393,-161L714,-107Z" fill="#b49479" stroke="#b49479" stroke-width="1.51"/><path d="M714,-107L393,-161L542,-88Z" fill="#b59164" stroke="#b59164" stroke-width="1.51"/><path d="M1255,978L1315,870L1187,944Z" fill="#29867e" stroke="#29867e" stroke-width="1.51"/><path d="M1187,944L1315,870L1161,775Z" fill="#3c988f" stroke="#3c988f" stroke-width="1.51"/><path d="M1258,757L1390,706L1238,627Z" fill="#5cb0a6" stroke="#5cb0a6" stroke-width="1.51"/><path d="M1320,578L1398,432L1245,481Z" fill="#8dbdb7" stroke="#8dbdb7" stroke-width="1.51"/><path d="M1315,870L1340,821L1258,757Z" fill="#37958d" stroke="#37958d" stroke-width="1.51"/><path d="M-38,382L-117,501L6,460Z" fill="#c19c7c" stroke="#c19c7c" stroke-width="1.51"/><path d="M-181,964L-4,966L-11,795Z" fill="#646140" stroke="#646140" stroke-width="1.51"/><path d="M-191,322L-117,501L-38,382Z" fill="#b59371" stroke="#b59371" stroke-width="1.51"/><path d="M1089,1063L1255,978L1187,944Z" fill="#35857b" stroke="#35857b" stroke-width="1.51"/><path d="M1334,367L1390,219L1289,287Z" fill="#96b197" stroke="#96b197" stroke-width="1.51"/><path d="M1433,602L1398,432L1320,578Z" fill="#7fb2ab" stroke="#7fb2ab" stroke-width="1.51"/><path d="M22,208L-122,172L-38,382Z" fill="#b88d53" stroke="#b88d53" stroke-width="1.51"/><path d="M134,54L-16,137L22,208Z" fill="#b78037" stroke="#b78037" stroke-width="1.51"/><path d="M70,16L-16,137L134,54Z" fill="#b07324" stroke="#b07324" stroke-width="1.51"/><path d="M134,54L252,23L55,-104Z" fill="#ac6f21" stroke="#ac6f21" stroke-width="1.51"/><path d="M249,-167L252,23L322,-107Z" fill="#a97733" stroke="#a97733" stroke-width="1.51"/><path d="M933,-102L1049,-122L714,-107Z" fill="#a79373" stroke="#a79373" stroke-width="1.51"/><path d="M1158,-118L1049,-122L1100,40Z" fill="#918b64" stroke="#918b64" stroke-width="1.51"/><path d="M1340,821L1390,706L1258,757Z" fill="#469e95" stroke="#469e95" stroke-width="1.51"/><path d="M-11,795L-4,966L103,959Z" fill="#716d46" stroke="#716d46" stroke-width="1.51"/><path d="M103,959L73,1080L183,986Z" fill="#6e653b" stroke="#6e653b" stroke-width="1.51"/><path d="M-123,710L-11,795L-45,671Z" fill="#8a8560" stroke="#8a8560" stroke-width="1.51"/><path d="M-176,605L-123,710L-45,671Z" fill="#8f8868" stroke="#8f8868" stroke-width="1.51"/><path d="M1398,432L1411,377L1334,367Z" fill="#91b4a6" stroke="#91b4a6" stroke-width="1.51"/><path d="M1227,-89L1158,-118L1100,40Z" fill="#8a845d" stroke="#8a845d" stroke-width="1.51"/><path d="M1446,425L1411,377L1398,432Z" fill="#8cafa5" stroke="#8cafa5" stroke-width="1.51"/><path d="M-4,966L73,1080L103,959Z" fill="#675f37" stroke="#675f37" stroke-width="1.51"/><path d="M305,1044L73,1080L597,1047Z" fill="#767d55" stroke="#767d55" stroke-width="1.51"/><path d="M1390,706L1433,602L1320,578Z" fill="#68aba3" stroke="#68aba3" stroke-width="1.51"/><path d="M393,-161L249,-167L322,-107Z" fill="#9e763a" stroke="#9e763a" stroke-width="1.51"/><path d="M-123,710L-134,757L-11,795Z" fill="#7e7d5a" stroke="#7e7d5a" stroke-width="1.51"/><path d="M-176,605L-134,757L-123,710Z" fill="#848263" stroke="#848263" stroke-width="1.51"/><path d="M1411,377L1390,219L1334,367Z" fill="#93b09a" stroke="#93b09a" stroke-width="1.51"/><path d="M1411,377L1510,271L1390,219Z" fill="#8aa389" stroke="#8aa389" stroke-width="1.51"/><path d="M1433,602L1446,425L1398,432Z" fill="#84aea8" stroke="#84aea8" stroke-width="1.51"/><path d="M-191,322L-176,605L-117,501Z" fill="#aa9076" stroke="#aa9076" stroke-width="1.51"/><path d="M-117,501L-176,605L0,572Z" fill="#a89374" stroke="#a89374" stroke-width="1.51"/><path d="M1227,-89L1100,40L1196,82Z" fill="#959064" stroke="#959064" stroke-width="1.51"/><path d="M1049,-122L1557,-127L393,-161Z" fill="#908869" stroke="#908869" stroke-width="1.51"/><path d="M1433,602L1532,436L1446,425Z" fill="#7fa8a2" stroke="#7fa8a2" stroke-width="1.51"/><path d="M1390,706L1448,731L1433,602Z" fill="#549f96" stroke="#549f96" stroke-width="1.51"/><path d="M1340,821L1448,731L1390,706Z" fill="#41978d" stroke="#41978d" stroke-width="1.51"/><path d="M1479,843L1448,731L1340,821Z" fill="#2f8981" stroke="#2f8981" stroke-width="1.51"/><path d="M1479,843L1340,821L1475,861Z" fill="#207f77" stroke="#207f77" stroke-width="1.51"/><path d="M-16,137L-122,172L22,208Z" fill="#b0803d" stroke="#b0803d" stroke-width="1.51"/><path d="M-30,3L-122,172L-16,137Z" fill="#a46d27" stroke="#a46d27" stroke-width="1.51"/><path d="M-30,3L-16,137L70,16Z" fill="#a5681c" stroke="#a5681c" stroke-width="1.51"/><path d="M1390,219L1358,70L1201,192Z" fill="#919e76" stroke="#919e76" stroke-width="1.51"/><path d="M1412,45L1358,70L1390,219Z" fill="#85885e" stroke="#85885e" stroke-width="1.51"/><path d="M1270,-60L1227,-89L1196,82Z" fill="#858159" stroke="#858159" stroke-width="1.51"/><path d="M55,-104L-30,3L70,16Z" fill="#985c14" stroke="#985c14" stroke-width="1.51"/><path d="M-4,966L-48,1038L73,1080Z" fill="#5e542e" stroke="#5e542e" stroke-width="1.51"/><path d="M-181,964L-48,1038L-4,966Z" fill="#565231" stroke="#565231" stroke-width="1.51"/><path d="M-122,172L-191,322L-38,382Z" fill="#b08b5a" stroke="#b08b5a" stroke-width="1.51"/><path d="M1358,70L1270,-60L1196,82Z" fill="#88865b" stroke="#88865b" stroke-width="1.51"/><path d="M249,-167L55,-104L252,23Z" fill="#a1681f" stroke="#a1681f" stroke-width="1.51"/><path d="M1255,978L1411,981L1315,870Z" fill="#1a7971" stroke="#1a7971" stroke-width="1.51"/><path d="M1408,1038L1411,981L1255,978Z" fill="#126c63" stroke="#126c63" stroke-width="1.51"/><path d="M1535,605L1532,436L1433,602Z" fill="#72a29b" stroke="#72a29b" stroke-width="1.51"/><path d="M1475,861L1340,821L1315,870Z" fill="#25857d" stroke="#25857d" stroke-width="1.51"/><path d="M1532,297L1510,271L1411,377Z" fill="#88a189" stroke="#88a189" stroke-width="1.51"/><path d="M1535,605L1433,602L1448,731Z" fill="#5a9d93" stroke="#5a9d93" stroke-width="1.51"/><path d="M1635,699L1535,605L1448,731Z" fill="#4d9186" stroke="#4d9186" stroke-width="1.51"/><path d="M1479,843L1538,848L1448,731Z" fill="#277f76" stroke="#277f76" stroke-width="1.51"/><path d="M1411,981L1475,861L1315,870Z" fill="#18776f" stroke="#18776f" stroke-width="1.51"/><path d="M1532,297L1411,377L1446,425Z" fill="#89a796" stroke="#89a796" stroke-width="1.51"/><path d="M1402,8L1316,-90L1270,-60Z" fill="#74704a" stroke="#74704a" stroke-width="1.51"/><path d="M-133,-58L-182,145L-30,3Z" fill="#8e5815" stroke="#8e5815" stroke-width="1.51"/><path d="M-30,3L-182,145L-122,172Z" fill="#9b6926" stroke="#9b6926" stroke-width="1.51"/><path d="M-122,172L-182,145L-191,322Z" fill="#a07b44" stroke="#a07b44" stroke-width="1.51"/><path d="M1503,73L1412,45L1390,219Z" fill="#808258" stroke="#808258" stroke-width="1.51"/><path d="M1402,8L1270,-60L1358,70Z" fill="#7b784f" stroke="#7b784f" stroke-width="1.51"/><path d="M1270,-60L1316,-90L1227,-89Z" fill="#73724f" stroke="#73724f" stroke-width="1.51"/><path d="M1227,-89L1316,-90L1158,-118Z" fill="#747452" stroke="#747452" stroke-width="1.51"/><path d="M1578,913L1538,848L1475,861Z" fill="#156d64" stroke="#156d64" stroke-width="1.51"/><path d="M1089,1063L1408,1038L1255,978Z" fill="#22756b" stroke="#22756b" stroke-width="1.51"/><path d="M1581,1039L1408,1038L1089,1063Z" fill="#0f635a" stroke="#0f635a" stroke-width="1.51"/><path d="M1510,271L1503,73L1390,219Z" fill="#82906a" stroke="#82906a" stroke-width="1.51"/><path d="M1532,436L1532,297L1446,425Z" fill="#85a294" stroke="#85a294" stroke-width="1.51"/><path d="M1635,191L1532,297L1532,436Z" fill="#81957b" stroke="#81957b" stroke-width="1.51"/><path d="M1412,45L1402,8L1358,70Z" fill="#7c784d" stroke="#7c784d" stroke-width="1.51"/><path d="M1503,73L1402,8L1412,45Z" fill="#777248" stroke="#777248" stroke-width="1.51"/><path d="M-191,322L-181,964L-176,605Z" fill="#8a8469" stroke="#8a8469" stroke-width="1.51"/><path d="M-176,605L-181,964L-134,757Z" fill="#6c7154" stroke="#6c7154" stroke-width="1.51"/><path d="M-134,757L-181,964L-11,795Z" fill="#686a4b" stroke="#686a4b" stroke-width="1.51"/><path d="M-181,964L-138,1058L-48,1038Z" fill="#4b492a" stroke="#4b492a" stroke-width="1.51"/><path d="M-48,1038L-138,1058L73,1080Z" fill="#544a26" stroke="#544a26" stroke-width="1.51"/><path d="M1535,605L1635,699L1532,436Z" fill="#67978f" stroke="#67978f" stroke-width="1.51"/><path d="M1475,861L1538,848L1479,843Z" fill="#1a766d" stroke="#1a766d" stroke-width="1.51"/><path d="M1578,913L1475,861L1411,981Z" fill="#0b6a61" stroke="#0b6a61" stroke-width="1.51"/><path d="M55,-104L-95,-78L-30,3Z" fill="#8a500a" stroke="#8a500a" stroke-width="1.51"/><path d="M-55,-171L-95,-78L55,-104Z" fill="#7b4709" stroke="#7b4709" stroke-width="1.51"/><path d="M-95,-78L-133,-58L-30,3Z" fill="#844d0b" stroke="#844d0b" stroke-width="1.51"/><path d="M1402,8L1435,-84L1316,-90Z" fill="#6c6742" stroke="#6c6742" stroke-width="1.51"/><path d="M1635,191L1503,73L1510,271Z" fill="#7b845c" stroke="#7b845c" stroke-width="1.51"/><path d="M-95,-78L-55,-171L-133,-58Z" fill="#754408" stroke="#754408" stroke-width="1.51"/><path d="M249,-167L-55,-171L55,-104Z" fill="#855112" stroke="#855112" stroke-width="1.51"/><path d="M1503,73L1435,-84L1402,8Z" fill="#6e6941" stroke="#6e6941" stroke-width="1.51"/><path d="M1316,-90L1557,-127L1158,-118Z" fill="#636444" stroke="#636444" stroke-width="1.51"/><path d="M1538,848L1635,699L1448,731Z" fill="#358278" stroke="#358278" stroke-width="1.51"/><path d="M1532,297L1635,191L1510,271Z" fill="#7f8e6f" stroke="#7f8e6f" stroke-width="1.51"/><path d="M1581,1039L1578,913L1411,981Z" fill="#015b51" stroke="#015b51" stroke-width="1.51"/><path d="M1538,848L1578,913L1635,699Z" fill="#1f7167" stroke="#1f7167" stroke-width="1.51"/><path d="M1635,699L1635,191L1532,436Z" fill="#7d9990" stroke="#7d9990" stroke-width="1.51"/><path d="M1503,73L1585,-57L1435,-84Z" fill="#655e37" stroke="#655e37" stroke-width="1.51"/><path d="M1408,1038L1581,1039L1411,981Z" fill="#015a51" stroke="#015a51" stroke-width="1.51"/><path d="M1578,913L1581,1039L1635,699Z" fill="#116359" stroke="#116359" stroke-width="1.51"/><path d="M958,1074L1581,1039L1089,1063Z" fill="#2a756a" stroke="#2a756a" stroke-width="1.51"/><path d="M838,1082L1581,1039L958,1074Z" fill="#3b7f73" stroke="#3b7f73" stroke-width="1.51"/><path d="M1635,191L1626,91L1503,73Z" fill="#737146" stroke="#737146" stroke-width="1.51"/><path d="M1626,91L1585,-57L1503,73Z" fill="#6a6136" stroke="#6a6136" stroke-width="1.51"/><path d="M1585,-57L1557,-127L1435,-84Z" fill="#56512f" stroke="#56512f" stroke-width="1.51"/><path d="M1435,-84L1557,-127L1316,-90Z" fill="#5b5a39" stroke="#5b5a39" stroke-width="1.51"/><path d="M1158,-118L1557,-127L1049,-122Z" fill="#6b6e4e" stroke="#6b6e4e" stroke-width="1.51"/><path d="M393,-161L1557,-127L249,-167Z" fill="#ae9177" stroke="#ae9177" stroke-width="1.51"/></svg>