<?xml version="1.0" encoding="UTF-8" standalone="no"?><!DOCTYPE svg PUBLIC "-//W3C//DTD SVG 1.1//EN" "http://www.w3.org/Graphics/SVG/1.1/DTD/svg11.dtd"><svg width="100%" height="100%" viewBox="0 0 591 896" version="1.1" xmlns="http://www.w3.org/2000/svg" xmlns:xlink="http://www.w3.org/1999/xlink" xml:space="preserve" xmlns:serif="http://www.serif.com/" style="fill-rule:evenodd;clip-rule:evenodd;"><rect id="Artboard1" x="0" y="0" width="590.583" height="895.26" style="fill:none;"/><clipPath id="_clip1"><rect x="0" y="0" width="590.583" height="895.26"/></clipPath><g clip-path="url(#_clip1)"><path d="M307.729,442.896l18.656,-83.402l34.02,75.72l-52.676,7.682Z" style="fill:#e7efe7;fill-rule:nonzero;stroke:#e7efe7;stroke-width:0.83px;"/><path d="M326.385,359.494l63.649,47.188l-29.629,28.532l-34.02,-75.72Z" style="fill:#ddece1;fill-rule:nonzero;stroke:#ddece1;stroke-width:0.83px;"/><path d="M326.385,359.494l75.172,8.23l-11.523,38.958l-63.649,-47.188Z" style="fill:#d7e8d8;fill-rule:nonzero;stroke:#d7e8d8;stroke-width:0.83px;"/><path d="M307.729,442.896l-58.162,-14.815l76.818,-68.587l-18.656,83.402Z" style="fill:#f3f2eb;fill-rule:nonzero;stroke:#f3f2eb;stroke-width:0.83px;"/><path d="M249.567,428.081l25.789,-97.669l51.029,29.082l-76.818,68.587Z" style="fill:#f6f0e2;fill-rule:nonzero;stroke:#f6f0e2;stroke-width:0.83px;"/><path d="M326.385,359.494l69.136,-59.809l6.036,68.039l-75.172,-8.23Z" style="fill:#d7e5ce;fill-rule:nonzero;stroke:#d7e5ce;stroke-width:0.83px;"/><path d="M360.405,435.214l14.266,72.977l-66.942,-65.295l52.676,-7.682Z" style="fill:#ddefed;fill-rule:nonzero;stroke:#ddefed;stroke-width:0.83px;"/><path d="M307.729,442.896l-36.763,57.065l-21.399,-71.88l58.162,14.815Z" style="fill:#f3f4f0;fill-rule:nonzero;stroke:#f3f4f0;stroke-width:0.83px;"/><path d="M390.034,406.682l-3.292,80.11l-26.337,-51.578l29.629,-28.532Z" style="fill:#d3eae5;fill-rule:nonzero;stroke:#d3eae5;stroke-width:0.83px;"/><path d="M476.18,477.464l-89.438,9.328l3.292,-80.11l86.146,70.782Z" style="fill:#bee2db;fill-rule:nonzero;stroke:#bee2db;stroke-width:0.83px;"/><path d="M275.356,330.412l0.549,-20.85l50.48,49.932l-51.029,-29.082Z" style="fill:#f2ebd6;fill-rule:nonzero;stroke:#f2ebd6;stroke-width:0.83px;"/><path d="M227.619,322.182l48.286,-12.62l-0.549,20.85l-47.737,-8.23Z" style="fill:#f4e7ca;fill-rule:nonzero;stroke:#f4e7ca;stroke-width:0.83px;"/><path d="M374.671,508.191l-103.705,-8.23l36.763,-57.065l66.942,65.295Z" style="fill:#e3f1ee;fill-rule:nonzero;stroke:#e3f1ee;stroke-width:0.83px;"/><path d="M386.742,486.792l-12.071,21.399l-14.266,-72.977l26.337,51.578Z" style="fill:#ceeae5;fill-rule:nonzero;stroke:#ceeae5;stroke-width:0.83px;"/><path d="M376.317,284.87l19.204,14.815l-69.136,59.809l49.932,-74.624Z" style="fill:#d8e1c6;fill-rule:nonzero;stroke:#d8e1c6;stroke-width:0.83px;"/><path d="M275.905,309.562l100.412,-24.692l-49.932,74.624l-50.48,-49.932Z" style="fill:#e7e6cd;fill-rule:nonzero;stroke:#e7e6cd;stroke-width:0.83px;"/><path d="M249.567,428.081l-21.948,-105.899l47.737,8.23l-25.789,97.669Z" style="fill:#f6ecd3;fill-rule:nonzero;stroke:#f6ecd3;stroke-width:0.83px;"/><path d="M270.966,499.961l-71.331,9.328l49.932,-81.208l21.399,71.88Z" style="fill:#efefe2;fill-rule:nonzero;stroke:#efefe2;stroke-width:0.83px;"/><path d="M249.567,428.081l-83.951,-59.26l62.003,-46.639l21.948,105.899Z" style="fill:#f6e9c9;fill-rule:nonzero;stroke:#f6e9c9;stroke-width:0.83px;"/><path d="M295.109,558.123l-53.224,-37.86l29.081,-20.302l24.143,58.162Z" style="fill:#e4efea;fill-rule:nonzero;stroke:#e4efea;stroke-width:0.83px;"/><path d="M374.671,508.191l-79.562,49.932l-24.143,-58.162l103.705,8.23Z" style="fill:#dbefeb;fill-rule:nonzero;stroke:#dbefeb;stroke-width:0.83px;"/><path d="M436.674,555.928l-59.26,-9.328l-2.743,-38.409l62.003,47.737Z" style="fill:#b5e2db;fill-rule:nonzero;stroke:#b5e2db;stroke-width:0.83px;"/><path d="M206.769,266.763l85.048,-9.876l-15.912,52.675l-69.136,-42.799Z" style="fill:#efdfba;fill-rule:nonzero;stroke:#efdfba;stroke-width:0.83px;"/><path d="M275.905,309.562l15.912,-52.675l84.5,27.983l-100.412,24.692Z" style="fill:#e7e0c3;fill-rule:nonzero;stroke:#e7e0c3;stroke-width:0.83px;"/><path d="M377.414,546.6l-82.305,11.523l79.562,-49.932l2.743,38.409Z" style="fill:#ccebe6;fill-rule:nonzero;stroke:#ccebe6;stroke-width:0.83px;"/><path d="M505.81,395.708l-29.63,81.756l-86.146,-70.782l115.776,-10.974Z" style="fill:#aed3c9;fill-rule:nonzero;stroke:#aed3c9;stroke-width:0.83px;"/><path d="M386.742,486.792l49.932,69.136l-62.003,-47.737l12.071,-21.399Z" style="fill:#b9e2dc;fill-rule:nonzero;stroke:#b9e2dc;stroke-width:0.83px;"/><path d="M496.482,372.114l-106.448,34.568l11.523,-38.958l94.925,4.39Z" style="fill:#bcdbc9;fill-rule:nonzero;stroke:#bcdbc9;stroke-width:0.83px;"/><path d="M199.635,509.289l-23.045,-38.958l72.977,-42.25l-49.932,81.208Z" style="fill:#f0ebd7;fill-rule:nonzero;stroke:#f0ebd7;stroke-width:0.83px;"/><path d="M241.885,520.263l-42.25,-10.974l71.331,-9.328l-29.081,20.302Z" style="fill:#e8eddf;fill-rule:nonzero;stroke:#e8eddf;stroke-width:0.83px;"/><path d="M260.541,598.178l-60.906,-88.889l42.25,10.974l18.656,77.915Z" style="fill:#e1ebdb;fill-rule:nonzero;stroke:#e1ebdb;stroke-width:0.83px;"/><path d="M176.59,470.331l-10.974,-101.51l83.951,59.26l-72.977,42.25Z" style="fill:#f4e8cc;fill-rule:nonzero;stroke:#f4e8cc;stroke-width:0.83px;"/><path d="M227.619,322.182l-20.85,-55.419l69.136,42.799l-48.286,12.62Z" style="fill:#f1e1ba;fill-rule:nonzero;stroke:#f1e1ba;stroke-width:0.83px;"/><path d="M395.521,299.685l100.961,72.429l-94.925,-4.39l-6.036,-68.039Z" style="fill:#bcd8c0;fill-rule:nonzero;stroke:#bcd8c0;stroke-width:0.83px;"/><path d="M376.317,284.87l15.912,-38.957l3.292,53.772l-19.204,-14.815Z" style="fill:#cbd5b4;fill-rule:nonzero;stroke:#cbd5b4;stroke-width:0.83px;"/><path d="M363.697,203.663l28.532,42.25l-15.912,38.957l-12.62,-81.207Z" style="fill:#cdd1ab;fill-rule:nonzero;stroke:#cdd1ab;stroke-width:0.83px;"/><path d="M526.112,334.253l-29.63,37.861l5.487,-105.351l24.143,67.49Z" style="fill:#99b69c;fill-rule:nonzero;stroke:#99b69c;stroke-width:0.83px;"/><path d="M496.482,372.114l9.328,23.594l-115.776,10.974l106.448,-34.568Z" style="fill:#abcebe;fill-rule:nonzero;stroke:#abcebe;stroke-width:0.83px;"/><path d="M178.785,295.296l27.984,-28.533l20.85,55.419l-48.834,-26.886Z" style="fill:#efdbab;fill-rule:nonzero;stroke:#efdbab;stroke-width:0.83px;"/><path d="M165.616,368.821l13.169,-73.525l48.834,26.886l-62.003,46.639Z" style="fill:#f0ddb0;fill-rule:nonzero;stroke:#f0ddb0;stroke-width:0.83px;"/><path d="M476.18,477.464l-39.506,78.464l-49.932,-69.136l89.438,-9.328Z" style="fill:#aadbd3;fill-rule:nonzero;stroke:#aadbd3;stroke-width:0.83px;"/><path d="M320.898,614.639l-60.357,-16.461l34.568,-40.055l25.789,56.516Z" style="fill:#cee9e4;fill-rule:nonzero;stroke:#cee9e4;stroke-width:0.83px;"/><path d="M476.18,477.464l10.426,71.331l-49.932,7.133l39.506,-78.464Z" style="fill:#95ccc4;fill-rule:nonzero;stroke:#95ccc4;stroke-width:0.83px;"/><path d="M529.404,404.487l-23.045,87.792l-30.179,-14.815l53.224,-72.977Z" style="fill:#96c2bc;fill-rule:nonzero;stroke:#96c2bc;stroke-width:0.83px;"/><path d="M505.81,395.708l23.594,8.779l-53.224,72.977l29.63,-81.756Z" style="fill:#9ac1b8;fill-rule:nonzero;stroke:#9ac1b8;stroke-width:0.83px;"/><path d="M496.482,372.114l32.922,32.373l-23.594,-8.779l-9.328,-23.594Z" style="fill:#98bcad;fill-rule:nonzero;stroke:#98bcad;stroke-width:0.83px;"/><path d="M526.112,334.253l3.292,70.234l-32.922,-32.373l29.63,-37.861Z" style="fill:#97b8a6;fill-rule:nonzero;stroke:#97b8a6;stroke-width:0.83px;"/><path d="M176.59,470.331l-46.091,-24.143l35.117,-77.367l10.974,101.51Z" style="fill:#eeddba;fill-rule:nonzero;stroke:#eeddba;stroke-width:0.83px;"/><path d="M165.616,368.821l-41.701,-80.11l54.87,6.585l-13.169,73.525Z" style="fill:#ead29b;fill-rule:nonzero;stroke:#ead29b;stroke-width:0.83px;"/><path d="M116.233,445.091l14.266,1.097l-46.091,23.594l31.825,-24.691Z" style="fill:#e5c9a3;fill-rule:nonzero;stroke:#e5c9a3;stroke-width:0.83px;"/><path d="M291.817,256.887l71.88,-53.224l12.62,81.207l-84.5,-27.983Z" style="fill:#dbd7b3;fill-rule:nonzero;stroke:#dbd7b3;stroke-width:0.83px;"/><path d="M501.969,266.763l-5.487,105.351l-100.961,-72.429l106.448,-32.922Z" style="fill:#aac4a8;fill-rule:nonzero;stroke:#aac4a8;stroke-width:0.83px;"/><path d="M280.843,192.689l82.854,10.974l-71.88,53.224l-10.974,-64.198Z" style="fill:#e1d0ab;fill-rule:nonzero;stroke:#e1d0ab;stroke-width:0.83px;"/><path d="M295.109,558.123l-34.568,40.055l-18.656,-77.915l53.224,37.86Z" style="fill:#dcece4;fill-rule:nonzero;stroke:#dcece4;stroke-width:0.83px;"/><path d="M145.863,529.591l-15.364,-83.403l46.091,24.143l-30.727,59.26Z" style="fill:#e6dbb8;fill-rule:nonzero;stroke:#e6dbb8;stroke-width:0.83px;"/><path d="M320.898,614.639l-25.789,-56.516l82.305,-11.523l-56.516,68.039Z" style="fill:#c7e9e3;fill-rule:nonzero;stroke:#c7e9e3;stroke-width:0.83px;"/><path d="M476.18,245.364l-80.659,54.321l-3.292,-53.772l83.951,-0.549Z" style="fill:#bbcca7;fill-rule:nonzero;stroke:#bbcca7;stroke-width:0.83px;"/><path d="M400.46,606.957l-79.562,7.682l56.516,-68.039l23.046,60.357Z" style="fill:#b4e2da;fill-rule:nonzero;stroke:#b4e2da;stroke-width:0.83px;"/><path d="M436.674,555.928l-36.214,51.029l-23.046,-60.357l59.26,9.328Z" style="fill:#a7ddd4;fill-rule:nonzero;stroke:#a7ddd4;stroke-width:0.83px;"/><path d="M506.359,492.279l-19.753,56.516l-10.426,-71.331l30.179,14.815Z" style="fill:#8fc4be;fill-rule:nonzero;stroke:#8fc4be;stroke-width:0.83px;"/><path d="M491.544,633.295l-91.084,-26.338l36.214,-51.029l54.87,77.367Z" style="fill:#8acdc3;fill-rule:nonzero;stroke:#8acdc3;stroke-width:0.83px;"/><path d="M413.628,157.023l62.552,88.341l-83.951,0.549l21.399,-88.89Z" style="fill:#b4bd93;fill-rule:nonzero;stroke:#b4bd93;stroke-width:0.83px;"/><path d="M194.148,223.965l86.695,-31.276l10.974,64.198l-97.669,-32.922Z" style="fill:#e9d2a6;fill-rule:nonzero;stroke:#e9d2a6;stroke-width:0.83px;"/><path d="M130.499,446.188l-14.266,-1.097l49.383,-76.27l-35.117,77.367Z" style="fill:#ebd5ac;fill-rule:nonzero;stroke:#ebd5ac;stroke-width:0.83px;"/><path d="M145.863,529.591l30.727,-59.26l23.045,38.958l-53.772,20.302Z" style="fill:#e5e0c2;fill-rule:nonzero;stroke:#e5e0c2;stroke-width:0.83px;"/><path d="M476.18,245.364l25.789,21.399l-106.448,32.922l80.659,-54.321Z" style="fill:#aabf9c;fill-rule:nonzero;stroke:#aabf9c;stroke-width:0.83px;"/><path d="M141.473,619.577l4.39,-89.986l53.772,-20.302l-58.162,110.288Z" style="fill:#d8dab8;fill-rule:nonzero;stroke:#d8dab8;stroke-width:0.83px;"/><path d="M206.769,266.763l-12.621,-42.798l97.669,32.922l-85.048,9.876Z" style="fill:#ecd7a7;fill-rule:nonzero;stroke:#ecd7a7;stroke-width:0.83px;"/><path d="M162.324,228.903l31.824,-4.938l12.621,42.798l-44.445,-37.86Z" style="fill:#e6cc90;fill-rule:nonzero;stroke:#e6cc90;stroke-width:0.83px;"/><path d="M162.324,228.903l44.445,37.86l-27.984,28.533l-16.461,-66.393Z" style="fill:#e8cf95;fill-rule:nonzero;stroke:#e8cf95;stroke-width:0.83px;"/><path d="M68.496,339.74l55.419,-51.029l41.701,80.11l-97.12,-29.081Z" style="fill:#e5c68b;fill-rule:nonzero;stroke:#e5c68b;stroke-width:0.83px;"/><path d="M476.18,245.364l32.374,-0.549l-6.585,21.948l-25.789,-21.399Z" style="fill:#98ae89;fill-rule:nonzero;stroke:#98ae89;stroke-width:0.83px;"/><path d="M501.969,266.763l47.188,0.549l-23.045,66.941l-24.143,-67.49Z" style="fill:#92a98a;fill-rule:nonzero;stroke:#92a98a;stroke-width:0.83px;"/><path d="M495.934,193.786l12.62,51.029l-32.374,0.549l19.754,-51.578Z" style="fill:#96a881;fill-rule:nonzero;stroke:#96a881;stroke-width:0.83px;"/><path d="M334.067,112.03l10.974,33.47l-64.198,47.189l53.224,-80.659Z" style="fill:#d7b98f;fill-rule:nonzero;stroke:#d7b98f;stroke-width:0.83px;"/><path d="M123.915,288.711l38.409,-59.808l16.461,66.393l-54.87,-6.585Z" style="fill:#e4c98a;fill-rule:nonzero;stroke:#e4c98a;stroke-width:0.83px;"/><path d="M260.541,598.178l-119.068,21.399l58.162,-110.288l60.906,88.889Z" style="fill:#d5e1c8;fill-rule:nonzero;stroke:#d5e1c8;stroke-width:0.83px;"/><path d="M320.898,614.639l-72.428,18.107l12.071,-34.568l60.357,16.461Z" style="fill:#c8e5de;fill-rule:nonzero;stroke:#c8e5de;stroke-width:0.83px;"/><path d="M312.668,658.535l-64.198,-25.789l72.428,-18.107l-8.23,43.896Z" style="fill:#bee3dc;fill-rule:nonzero;stroke:#bee3dc;stroke-width:0.83px;"/><path d="M506.359,492.279l44.993,23.594l-64.746,32.922l19.753,-56.516Z" style="fill:#84bab4;fill-rule:nonzero;stroke:#84bab4;stroke-width:0.83px;"/><path d="M392.778,699.139l-18.107,-30.179l88.889,20.302l-70.782,9.877Z" style="fill:#7bc6bb;fill-rule:nonzero;stroke:#7bc6bb;stroke-width:0.83px;"/><path d="M610.063,466.49l-58.711,49.383l-44.993,-23.594l103.704,-25.789Z" style="fill:#7faca6;fill-rule:nonzero;stroke:#7faca6;stroke-width:0.83px;"/><path d="M610.063,466.49l-103.704,25.789l23.045,-87.792l80.659,62.003Z" style="fill:#8ab1ab;fill-rule:nonzero;stroke:#8ab1ab;stroke-width:0.83px;"/><path d="M116.233,445.091l-47.737,-105.351l97.12,29.081l-49.383,76.27Z" style="fill:#e7c998;fill-rule:nonzero;stroke:#e7c998;stroke-width:0.83px;"/><path d="M145.863,529.591l-61.455,-59.809l46.091,-23.594l15.364,83.403Z" style="fill:#e1cca7;fill-rule:nonzero;stroke:#e1cca7;stroke-width:0.83px;"/><path d="M89.895,561.964l-5.487,-92.182l61.455,59.809l-55.968,32.373Z" style="fill:#d7c49c;fill-rule:nonzero;stroke:#d7c49c;stroke-width:0.83px;"/><path d="M374.671,668.96l-62.003,-10.425l8.23,-43.896l53.773,54.321Z" style="fill:#acded5;fill-rule:nonzero;stroke:#acded5;stroke-width:0.83px;"/><path d="M363.697,203.663l49.931,-46.64l-21.399,88.89l-28.532,-42.25Z" style="fill:#c4c097;fill-rule:nonzero;stroke:#c4c097;stroke-width:0.83px;"/><path d="M280.843,192.689l64.198,-47.189l18.656,58.163l-82.854,-10.974Z" style="fill:#d8c29a;fill-rule:nonzero;stroke:#d8c29a;stroke-width:0.83px;"/><path d="M204.574,175.679l76.269,17.01l-86.695,31.276l10.426,-48.286Z" style="fill:#e5c691;fill-rule:nonzero;stroke:#e5c691;stroke-width:0.83px;"/><path d="M612.807,379.795l-9.877,21.4l-73.526,3.292l83.403,-24.692Z" style="fill:#85a293;fill-rule:nonzero;stroke:#85a293;stroke-width:0.83px;"/><path d="M508.554,244.815l40.603,22.497l-47.188,-0.549l6.585,-21.948Z" style="fill:#91a682;fill-rule:nonzero;stroke:#91a682;stroke-width:0.83px;"/><path d="M540.927,173.484l8.23,93.828l-40.603,-22.497l32.373,-71.331Z" style="fill:#8b9973;fill-rule:nonzero;stroke:#8b9973;stroke-width:0.83px;"/><path d="M167.262,159.767l37.312,15.912l-10.426,48.286l-26.886,-64.198Z" style="fill:#dfba7b;fill-rule:nonzero;stroke:#dfba7b;stroke-width:0.83px;"/><path d="M345.041,145.5l68.587,11.523l-49.931,46.64l-18.656,-58.163Z" style="fill:#c7b98e;fill-rule:nonzero;stroke:#c7b98e;stroke-width:0.83px;"/><path d="M123.915,288.711l-32.922,-91.633l71.331,31.825l-38.409,59.808Z" style="fill:#dab66f;fill-rule:nonzero;stroke:#dab66f;stroke-width:0.83px;"/><path d="M162.324,228.903l4.938,-69.136l26.886,64.198l-31.824,4.938Z" style="fill:#dfbc7b;fill-rule:nonzero;stroke:#dfbc7b;stroke-width:0.83px;"/><path d="M27.892,402.841l40.604,-63.101l47.737,105.351l-88.341,-42.25Z" style="fill:#ddb482;fill-rule:nonzero;stroke:#ddb482;stroke-width:0.83px;"/><path d="M413.628,157.023l82.306,36.763l-19.754,51.578l-62.552,-88.341Z" style="fill:#a2aa80;fill-rule:nonzero;stroke:#a2aa80;stroke-width:0.83px;"/><path d="M400.46,606.957l-25.789,62.003l-53.773,-54.321l79.562,-7.682Z" style="fill:#a6ddd3;fill-rule:nonzero;stroke:#a6ddd3;stroke-width:0.83px;"/><path d="M491.544,633.295l-54.87,-77.367l49.932,-7.133l4.938,84.5Z" style="fill:#82c4bc;fill-rule:nonzero;stroke:#82c4bc;stroke-width:0.83px;"/><path d="M612.807,379.795l-83.403,24.692l-3.292,-70.234l86.695,45.542Z" style="fill:#8baa98;fill-rule:nonzero;stroke:#8baa98;stroke-width:0.83px;"/><path d="M534.343,621.772l-42.799,11.523l-4.938,-84.5l47.737,72.977Z" style="fill:#6db5ac;fill-rule:nonzero;stroke:#6db5ac;stroke-width:0.83px;"/><path d="M68.496,339.74l-4.938,-41.701l60.357,-9.328l-55.419,51.029Z" style="fill:#dab170;fill-rule:nonzero;stroke:#dab170;stroke-width:0.83px;"/><path d="M27.892,402.841l27.435,-71.331l13.169,8.23l-40.604,63.101Z" style="fill:#d5ab74;fill-rule:nonzero;stroke:#d5ab74;stroke-width:0.83px;"/><path d="M602.93,401.195l7.133,65.295l-80.659,-62.003l73.526,-3.292Z" style="fill:#85a49a;fill-rule:nonzero;stroke:#85a49a;stroke-width:0.83px;"/><path d="M579.885,265.117l32.922,114.678l-86.695,-45.542l53.773,-69.136Z" style="fill:#879e85;fill-rule:nonzero;stroke:#879e85;stroke-width:0.83px;"/><path d="M55.327,331.51l8.231,-33.471l4.938,41.701l-13.169,-8.23Z" style="fill:#d5aa6c;fill-rule:nonzero;stroke:#d5aa6c;stroke-width:0.83px;"/><path d="M149.155,684.873l-7.682,-65.296l106.997,13.169l-99.315,52.127Z" style="fill:#bdd1b1;fill-rule:nonzero;stroke:#bdd1b1;stroke-width:0.83px;"/><path d="M248.47,632.746l-106.997,-13.169l119.068,-21.399l-12.071,34.568Z" style="fill:#cadfc9;fill-rule:nonzero;stroke:#cadfc9;stroke-width:0.83px;"/><path d="M84.408,469.782l-56.516,-66.941l88.341,42.25l-31.825,24.691Z" style="fill:#e0b98e;fill-rule:nonzero;stroke:#e0b98e;stroke-width:0.83px;"/><path d="M141.473,619.577l-51.578,-57.613l55.968,-32.373l-4.39,89.986Z" style="fill:#cec9a1;fill-rule:nonzero;stroke:#cec9a1;stroke-width:0.83px;"/><path d="M549.157,267.312l30.728,-2.195l-53.773,69.136l23.045,-66.941Z" style="fill:#8a9f80;fill-rule:nonzero;stroke:#8a9f80;stroke-width:0.83px;"/><path d="M540.927,173.484l38.958,91.633l-30.728,2.195l-8.23,-93.828Z" style="fill:#84936d;fill-rule:nonzero;stroke:#84936d;stroke-width:0.83px;"/><path d="M551.352,515.873l-17.009,105.899l-47.737,-72.977l64.746,-32.922Z" style="fill:#75b3ab;fill-rule:nonzero;stroke:#75b3ab;stroke-width:0.83px;"/><path d="M89.895,561.964l-41.701,-84.5l36.214,-7.682l5.487,92.182Z" style="fill:#d5b68b;fill-rule:nonzero;stroke:#d5b68b;stroke-width:0.83px;"/><path d="M413.628,157.023l15.364,-40.055l66.942,76.818l-82.306,-36.763Z" style="fill:#a6a375;fill-rule:nonzero;stroke:#a6a375;stroke-width:0.83px;"/><path d="M345.041,145.5l83.951,-28.532l-15.364,40.055l-68.587,-11.523Z" style="fill:#baac7e;fill-rule:nonzero;stroke:#baac7e;stroke-width:0.83px;"/><path d="M297.304,74.718l36.763,37.312l-53.224,80.659l16.461,-117.971Z" style="fill:#d7b48b;fill-rule:nonzero;stroke:#d7b48b;stroke-width:0.83px;"/><path d="M204.574,175.679l17.009,-83.951l59.26,100.961l-76.269,-17.01Z" style="fill:#e0b882;fill-rule:nonzero;stroke:#e0b882;stroke-width:0.83px;"/><path d="M90.993,197.078l76.269,-37.311l-4.938,69.136l-71.331,-31.825Z" style="fill:#d7af66;fill-rule:nonzero;stroke:#d7af66;stroke-width:0.83px;"/><path d="M312.668,658.535l-73.526,26.886l9.328,-52.675l64.198,25.789Z" style="fill:#bbddd2;fill-rule:nonzero;stroke:#bbddd2;stroke-width:0.83px;"/><path d="M325.288,711.759l-86.146,-26.338l73.526,-26.886l12.62,53.224Z" style="fill:#aed7d0;fill-rule:nonzero;stroke:#aed7d0;stroke-width:0.83px;"/><path d="M463.56,689.262l-88.889,-20.302l25.789,-62.003l63.1,82.305Z" style="fill:#84cec2;fill-rule:nonzero;stroke:#84cec2;stroke-width:0.83px;"/><path d="M627.622,577.876l-93.279,43.896l17.009,-105.899l76.27,62.003Z" style="fill:#65a098;fill-rule:nonzero;stroke:#65a098;stroke-width:0.83px;"/><path d="M48.194,477.464l-20.302,-74.623l56.516,66.941l-36.214,7.682Z" style="fill:#d8b18a;fill-rule:nonzero;stroke:#d8b18a;stroke-width:0.83px;"/><path d="M-50.023,267.861l82.854,-31.825l30.727,62.003l-113.581,-30.178Z" style="fill:#bd8f4e;fill-rule:nonzero;stroke:#bd8f4e;stroke-width:0.83px;"/><path d="M374.671,668.96l-49.383,42.799l-12.62,-53.224l62.003,10.425Z" style="fill:#a1d5cd;fill-rule:nonzero;stroke:#a1d5cd;stroke-width:0.83px;"/><path d="M463.56,689.262l-63.1,-82.305l91.084,26.338l-27.984,55.967Z" style="fill:#75c3b8;fill-rule:nonzero;stroke:#75c3b8;stroke-width:0.83px;"/><path d="M334.067,112.03l94.925,4.938l-83.951,28.532l-10.974,-33.47Z" style="fill:#c1ad82;fill-rule:nonzero;stroke:#c1ad82;stroke-width:0.83px;"/><path d="M495.934,193.786l44.993,-20.302l-32.373,71.331l-12.62,-51.029Z" style="fill:#8e9870;fill-rule:nonzero;stroke:#8e9870;stroke-width:0.83px;"/><path d="M392.778,699.139l-67.49,12.62l49.383,-42.799l18.107,30.179Z" style="fill:#91cdc5;fill-rule:nonzero;stroke:#91cdc5;stroke-width:0.83px;"/><path d="M428.992,116.968l111.935,56.516l-44.993,20.302l-66.942,-76.818Z" style="fill:#939569;fill-rule:nonzero;stroke:#939569;stroke-width:0.83px;"/><path d="M32.831,236.036l58.162,-38.958l-27.435,100.961l-30.727,-62.003Z" style="fill:#cb9b51;fill-rule:nonzero;stroke:#cb9b51;stroke-width:0.83px;"/><path d="M63.558,298.039l27.435,-100.961l32.922,91.633l-60.357,9.328Z" style="fill:#d6ac64;fill-rule:nonzero;stroke:#d6ac64;stroke-width:0.83px;"/><path d="M556.291,703.529l-92.731,-14.267l27.984,-55.967l64.747,70.234Z" style="fill:#50a79e;fill-rule:nonzero;stroke:#50a79e;stroke-width:0.83px;"/><path d="M392.778,699.139l-10.425,32.373l-57.065,-19.753l67.49,-12.62Z" style="fill:#88c7c0;fill-rule:nonzero;stroke:#88c7c0;stroke-width:0.83px;"/><path d="M610.063,466.49l21.948,45.542l-80.659,3.841l58.711,-49.383Z" style="fill:#759d96;fill-rule:nonzero;stroke:#759d96;stroke-width:0.83px;"/><path d="M141.473,619.577l-61.454,3.841l9.876,-61.454l51.578,57.613Z" style="fill:#c1ba8f;fill-rule:nonzero;stroke:#c1ba8f;stroke-width:0.83px;"/><path d="M89.895,561.964l-60.905,-10.425l19.204,-74.075l41.701,84.5Z" style="fill:#c8ad84;fill-rule:nonzero;stroke:#c8ad84;stroke-width:0.83px;"/><path d="M149.155,684.873l-34.019,-34.568l26.337,-30.728l7.682,65.296Z" style="fill:#b6c298;fill-rule:nonzero;stroke:#b6c298;stroke-width:0.83px;"/><path d="M149.155,684.873l99.315,-52.127l-9.328,52.675l-89.987,-0.548Z" style="fill:#b9d5bc;fill-rule:nonzero;stroke:#b9d5bc;stroke-width:0.83px;"/><path d="M170.554,80.754l51.029,10.974l-54.321,68.039l3.292,-79.013Z" style="fill:#d0a363;fill-rule:nonzero;stroke:#d0a363;stroke-width:0.83px;"/><path d="M167.262,159.767l54.321,-68.039l-17.009,83.951l-37.312,-15.912Z" style="fill:#daae6f;fill-rule:nonzero;stroke:#daae6f;stroke-width:0.83px;"/><path d="M334.067,112.03l18.107,-59.809l76.818,64.747l-94.925,-4.938Z" style="fill:#b9a57b;fill-rule:nonzero;stroke:#b9a57b;stroke-width:0.83px;"/><path d="M221.583,91.728l75.721,-17.01l-16.461,117.971l-59.26,-100.961Z" style="fill:#dab185;fill-rule:nonzero;stroke:#dab185;stroke-width:0.83px;"/><path d="M115.136,650.305l-35.117,-26.887l61.454,-3.841l-26.337,30.728Z" style="fill:#baba8f;fill-rule:nonzero;stroke:#baba8f;stroke-width:0.83px;"/><path d="M48.194,477.464l-53.772,-19.204l33.47,-55.419l20.302,74.623Z" style="fill:#cda681;fill-rule:nonzero;stroke:#cda681;stroke-width:0.83px;"/><path d="M453.684,742.486l-71.331,-10.974l10.425,-32.373l60.906,43.347Z" style="fill:#6ebcb2;fill-rule:nonzero;stroke:#6ebcb2;stroke-width:0.83px;"/><path d="M325.288,711.759l-23.046,23.594l-63.1,-49.932l86.146,26.338Z" style="fill:#a7d0ca;fill-rule:nonzero;stroke:#a7d0ca;stroke-width:0.83px;"/><path d="M355.466,776.506l-53.224,-41.153l23.046,-23.594l30.178,64.747Z" style="fill:#90c5bf;fill-rule:nonzero;stroke:#90c5bf;stroke-width:0.83px;"/><path d="M115.136,650.305l-54.87,5.487l19.753,-32.374l35.117,26.887Z" style="fill:#b1ac7d;fill-rule:nonzero;stroke:#b1ac7d;stroke-width:0.83px;"/><path d="M143.668,711.21l5.487,-26.337l89.987,0.548l-95.474,25.789Z" style="fill:#adc4a4;fill-rule:nonzero;stroke:#adc4a4;stroke-width:0.83px;"/><path d="M42.707,581.717l-13.717,-30.178l60.905,10.425l-47.188,19.753Z" style="fill:#bfaa80;fill-rule:nonzero;stroke:#bfaa80;stroke-width:0.83px;"/><path d="M80.019,623.418l-37.312,-41.701l47.188,-19.753l-9.876,61.454Z" style="fill:#bead80;fill-rule:nonzero;stroke:#bead80;stroke-width:0.83px;"/><path d="M579.885,265.117l31.276,-45.542l1.646,160.22l-32.922,-114.678Z" style="fill:#7e8f6e;fill-rule:nonzero;stroke:#7e8f6e;stroke-width:0.83px;"/><path d="M540.927,173.484l70.234,46.091l-31.276,45.542l-38.958,-91.633Z" style="fill:#7e875f;fill-rule:nonzero;stroke:#7e875f;stroke-width:0.83px;"/><path d="M-9.968,349.617l73.526,-51.578l-8.231,33.471l-65.295,18.107Z" style="fill:#cca167;fill-rule:nonzero;stroke:#cca167;stroke-width:0.83px;"/><path d="M28.99,551.539l-34.568,-93.279l53.772,19.204l-19.204,74.075Z" style="fill:#c4a37e;fill-rule:nonzero;stroke:#c4a37e;stroke-width:0.83px;"/><path d="M-9.968,349.617l65.295,-18.107l-27.435,71.331l-37.86,-53.224Z" style="fill:#cba16e;fill-rule:nonzero;stroke:#cba16e;stroke-width:0.83px;"/><path d="M78.921,144.952l91.633,-64.198l-3.292,79.013l-88.341,-14.815Z" style="fill:#ca9a4f;fill-rule:nonzero;stroke:#ca9a4f;stroke-width:0.83px;"/><path d="M-20.393,443.993l10.425,-94.376l37.86,53.224l-48.285,41.152Z" style="fill:#c29b72;fill-rule:nonzero;stroke:#c29b72;stroke-width:0.83px;"/><path d="M632.011,512.032l-4.389,65.844l-76.27,-62.003l80.659,-3.841Z" style="fill:#6c9991;fill-rule:nonzero;stroke:#6c9991;stroke-width:0.83px;"/><path d="M534.343,621.772l32.373,43.347l-75.172,-31.824l42.799,-11.523Z" style="fill:#56a59b;fill-rule:nonzero;stroke:#56a59b;stroke-width:0.83px;"/><path d="M221.583,91.728l69.137,-36.214l6.584,19.204l-75.721,17.01Z" style="fill:#cfa67e;fill-rule:nonzero;stroke:#cfa67e;stroke-width:0.83px;"/><path d="M297.304,74.718l54.87,-22.497l-18.107,59.809l-36.763,-37.312Z" style="fill:#c4a680;fill-rule:nonzero;stroke:#c4a680;stroke-width:0.83px;"/><path d="M32.831,236.036l18.107,-45.542l40.055,6.584l-58.162,38.958Z" style="fill:#c38f42;fill-rule:nonzero;stroke:#c38f42;stroke-width:0.83px;"/><path d="M-5.578,458.26l-14.815,-14.267l48.285,-41.152l-33.47,55.419Z" style="fill:#c49d7a;fill-rule:nonzero;stroke:#c49d7a;stroke-width:0.83px;"/><path d="M-17.65,564.159l12.072,-105.899l34.568,93.279l-46.64,12.62Z" style="fill:#b69a78;fill-rule:nonzero;stroke:#b69a78;stroke-width:0.83px;"/><path d="M428.992,116.968l21.948,-44.993l89.987,101.509l-111.935,-56.516Z" style="fill:#938f63;fill-rule:nonzero;stroke:#938f63;stroke-width:0.83px;"/><path d="M290.72,55.514l61.454,-3.293l-54.87,22.497l-6.584,-19.204Z" style="fill:#c4a27e;fill-rule:nonzero;stroke:#c4a27e;stroke-width:0.83px;"/><path d="M463.56,689.262l-9.876,53.224l-60.906,-43.347l70.782,-9.877Z" style="fill:#65b7ad;fill-rule:nonzero;stroke:#65b7ad;stroke-width:0.83px;"/><path d="M621.586,649.756l-54.87,15.363l-32.373,-43.347l87.243,27.984Z" style="fill:#49958b;fill-rule:nonzero;stroke:#49958b;stroke-width:0.83px;"/><path d="M406.495,27.53l44.445,44.445l-21.948,44.993l-22.497,-89.438Z" style="fill:#9b946a;fill-rule:nonzero;stroke:#9b946a;stroke-width:0.83px;"/><path d="M540.927,173.484l38.409,-20.85l31.825,66.941l-70.234,-46.091Z" style="fill:#7b7c52;fill-rule:nonzero;stroke:#7b7c52;stroke-width:0.83px;"/><path d="M564.521,108.738l14.815,43.896l-38.409,20.85l23.594,-64.746Z" style="fill:#7a764a;fill-rule:nonzero;stroke:#7a764a;stroke-width:0.83px;"/><path d="M80.019,623.418l-19.753,32.374l-17.559,-74.075l37.312,41.701Z" style="fill:#b1a578;fill-rule:nonzero;stroke:#b1a578;stroke-width:0.83px;"/><path d="M149.155,684.873l-65.844,23.594l31.825,-58.162l34.019,34.568Z" style="fill:#aab186;fill-rule:nonzero;stroke:#aab186;stroke-width:0.83px;"/><path d="M195.795,759.496l-52.127,-48.286l95.474,-25.789l-43.347,74.075Z" style="fill:#a7c2a6;fill-rule:nonzero;stroke:#a7c2a6;stroke-width:0.83px;"/><path d="M78.921,144.952l88.341,14.815l-76.269,37.311l-12.072,-52.126Z" style="fill:#cc994b;fill-rule:nonzero;stroke:#cc994b;stroke-width:0.83px;"/><path d="M221.583,91.728l26.338,-60.357l42.799,24.143l-69.137,36.214Z" style="fill:#caa176;fill-rule:nonzero;stroke:#caa176;stroke-width:0.83px;"/><path d="M50.938,190.494l27.983,-45.542l12.072,52.126l-40.055,-6.584Z" style="fill:#c48a3a;fill-rule:nonzero;stroke:#c48a3a;stroke-width:0.83px;"/><path d="M382.353,731.512l-26.887,44.994l-30.178,-64.747l57.065,19.753Z" style="fill:#86c3bc;fill-rule:nonzero;stroke:#86c3bc;stroke-width:0.83px;"/><path d="M515.687,773.762l-62.003,-31.276l9.876,-53.224l52.127,84.5Z" style="fill:#45a198;fill-rule:nonzero;stroke:#45a198;stroke-width:0.83px;"/><path d="M83.311,708.467l-23.045,-52.675l54.87,-5.487l-31.825,58.162Z" style="fill:#a9a678;fill-rule:nonzero;stroke:#a9a678;stroke-width:0.83px;"/><path d="M42.707,581.717l-60.357,-17.558l46.64,-12.62l13.717,30.178Z" style="fill:#b39c76;fill-rule:nonzero;stroke:#b39c76;stroke-width:0.83px;"/><path d="M425.7,814.915l-70.234,-38.409l26.887,-44.994l43.347,83.403Z" style="fill:#6cb3ab;fill-rule:nonzero;stroke:#6cb3ab;stroke-width:0.83px;"/><path d="M239.691,784.187l-43.896,-24.691l43.347,-74.075l0.549,98.766Z" style="fill:#a1c2ae;fill-rule:nonzero;stroke:#a1c2ae;stroke-width:0.83px;"/><path d="M566.716,665.119l-10.425,38.41l-64.747,-70.234l75.172,31.824Z" style="fill:#4a9c93;fill-rule:nonzero;stroke:#4a9c93;stroke-width:0.83px;"/><path d="M621.586,649.756l-65.295,53.773l10.425,-38.41l54.87,-15.363Z" style="fill:#3f8c82;fill-rule:nonzero;stroke:#3f8c82;stroke-width:0.83px;"/><path d="M579.336,152.634l51.578,-60.357l-19.753,127.298l-31.825,-66.941Z" style="fill:#716a3e;fill-rule:nonzero;stroke:#716a3e;stroke-width:0.83px;"/><path d="M450.94,71.975l113.581,36.763l-23.594,64.746l-89.987,-101.509Z" style="fill:#827e54;fill-rule:nonzero;stroke:#827e54;stroke-width:0.83px;"/><path d="M239.691,784.187l-0.549,-98.766l63.1,49.932l-62.551,48.834Z" style="fill:#a2c7bc;fill-rule:nonzero;stroke:#a2c7bc;stroke-width:0.83px;"/><path d="M143.668,711.21l-60.357,-2.743l65.844,-23.594l-5.487,26.337Z" style="fill:#a4b087;fill-rule:nonzero;stroke:#a4b087;stroke-width:0.83px;"/><path d="M290.72,55.514l22.496,-67.49l38.958,64.197l-61.454,3.293Z" style="fill:#ba9b79;fill-rule:nonzero;stroke:#ba9b79;stroke-width:0.83px;"/><path d="M170.554,80.754l77.367,-49.383l-26.338,60.357l-51.029,-10.974Z" style="fill:#caa069;fill-rule:nonzero;stroke:#caa069;stroke-width:0.83px;"/><path d="M170.554,80.754l-18.107,-16.461l95.474,-32.922l-77.367,49.383Z" style="fill:#c3975c;fill-rule:nonzero;stroke:#c3975c;stroke-width:0.83px;"/><path d="M78.921,144.952l73.526,-80.659l18.107,16.461l-91.633,64.198Z" style="fill:#c18f46;fill-rule:nonzero;stroke:#c18f46;stroke-width:0.83px;"/><path d="M50.938,190.494l17.009,-64.747l10.974,19.205l-27.983,45.542Z" style="fill:#bd802f;fill-rule:nonzero;stroke:#bd802f;stroke-width:0.83px;"/><path d="M47.097,90.63l20.85,35.117l-86.694,-43.347l65.844,8.23Z" style="fill:#a3671b;fill-rule:nonzero;stroke:#a3671b;stroke-width:0.83px;"/><path d="M-20.393,228.903l71.331,-38.409l-18.107,45.542l-53.224,-7.133Z" style="fill:#b7853e;fill-rule:nonzero;stroke:#b7853e;stroke-width:0.83px;"/><path d="M-28.624,627.808l10.974,-63.649l60.357,17.558l-71.331,46.091Z" style="fill:#a3936f;fill-rule:nonzero;stroke:#a3936f;stroke-width:0.83px;"/><path d="M627.622,577.876l-6.036,71.88l-87.243,-27.984l93.279,-43.896Z" style="fill:#529288;fill-rule:nonzero;stroke:#529288;stroke-width:0.83px;"/><path d="M67.947,125.747l84.5,-61.454l-73.526,80.659l-10.974,-19.205Z" style="fill:#bd8335;fill-rule:nonzero;stroke:#bd8335;stroke-width:0.83px;"/><path d="M450.94,71.975l23.594,-25.789l89.987,62.552l-113.581,-36.763Z" style="fill:#7f7c54;fill-rule:nonzero;stroke:#7f7c54;stroke-width:0.83px;"/><path d="M352.174,52.221l54.321,-24.691l22.497,89.438l-76.818,-64.747Z" style="fill:#a89971;fill-rule:nonzero;stroke:#a89971;stroke-width:0.83px;"/><path d="M370.281,-44.35l36.214,71.88l-54.321,24.691l18.107,-96.571Z" style="fill:#a1916f;fill-rule:nonzero;stroke:#a1916f;stroke-width:0.83px;"/><path d="M406.495,27.53l68.039,18.656l-23.594,25.789l-44.445,-44.445Z" style="fill:#8f8861;fill-rule:nonzero;stroke:#8f8861;stroke-width:0.83px;"/><path d="M275.356,819.304l-35.665,-35.117l62.551,-48.834l-26.886,83.951Z" style="fill:#97bdb5;fill-rule:nonzero;stroke:#97bdb5;stroke-width:0.83px;"/><path d="M-50.023,267.861l29.63,-38.958l53.224,7.133l-82.854,31.825Z" style="fill:#ae8242;fill-rule:nonzero;stroke:#ae8242;stroke-width:0.83px;"/><path d="M-50.023,267.861l113.581,30.178l-73.526,51.578l-40.055,-81.756Z" style="fill:#bc9158;fill-rule:nonzero;stroke:#bc9158;stroke-width:0.83px;"/><path d="M60.266,655.792l-88.89,-27.984l71.331,-46.091l17.559,74.075Z" style="fill:#a5986f;fill-rule:nonzero;stroke:#a5986f;stroke-width:0.83px;"/><path d="M76.727,797.356l6.584,-88.889l60.357,2.743l-66.941,86.146Z" style="fill:#969c71;fill-rule:nonzero;stroke:#969c71;stroke-width:0.83px;"/><path d="M158.483,814.915l-14.815,-103.705l52.127,48.286l-37.312,55.419Z" style="fill:#97af8e;fill-rule:nonzero;stroke:#97af8e;stroke-width:0.83px;"/><path d="M574.946,740.84l-59.259,32.922l40.604,-70.233l18.655,37.311Z" style="fill:#29867e;fill-rule:nonzero;stroke:#29867e;stroke-width:0.83px;"/><path d="M556.291,703.529l-40.604,70.233l-52.127,-84.5l92.731,14.267Z" style="fill:#3c988f;fill-rule:nonzero;stroke:#3c988f;stroke-width:0.83px;"/><path d="M453.684,742.486l-27.984,72.429l-43.347,-83.403l71.331,10.974Z" style="fill:#5cb0a6;fill-rule:nonzero;stroke:#5cb0a6;stroke-width:0.83px;"/><path d="M355.466,776.506l-80.11,42.798l26.886,-83.951l53.224,41.153Z" style="fill:#8dbdb7;fill-rule:nonzero;stroke:#8dbdb7;stroke-width:0.83px;"/><path d="M515.687,773.762l-26.887,13.718l-35.116,-44.994l62.003,31.276Z" style="fill:#37958d;fill-rule:nonzero;stroke:#37958d;stroke-width:0.83px;"/><path d="M247.921,31.371l65.295,-43.347l-22.496,67.49l-42.799,-24.143Z" style="fill:#c19c7c;fill-rule:nonzero;stroke:#c19c7c;stroke-width:0.83px;"/><path d="M567.265,-47.093l1.097,97.12l-93.828,-3.841l92.731,-93.279Z" style="fill:#646140;fill-rule:nonzero;stroke:#646140;stroke-width:0.83px;"/><path d="M214.999,-52.58l98.217,40.604l-65.295,43.347l-32.922,-83.951Z" style="fill:#b59371;fill-rule:nonzero;stroke:#b59371;stroke-width:0.83px;"/><path d="M621.586,649.756l-46.64,91.084l-18.655,-37.311l65.295,-53.773Z" style="fill:#35857b;fill-rule:nonzero;stroke:#35857b;stroke-width:0.83px;"/><path d="M239.691,784.187l-81.208,30.728l37.312,-55.419l43.896,24.691Z" style="fill:#96b197;fill-rule:nonzero;stroke:#96b197;stroke-width:0.83px;"/><path d="M368.635,838.509l-93.279,-19.205l80.11,-42.798l13.169,62.003Z" style="fill:#7fb2ab;fill-rule:nonzero;stroke:#7fb2ab;stroke-width:0.83px;"/><path d="M152.447,64.293l-19.753,-79.013l115.227,46.091l-95.474,32.922Z" style="fill:#b88d53;fill-rule:nonzero;stroke:#b88d53;stroke-width:0.83px;"/><path d="M67.947,125.747l45.543,-82.305l38.957,20.851l-84.5,61.454Z" style="fill:#b78037;fill-rule:nonzero;stroke:#b78037;stroke-width:0.83px;"/><path d="M47.097,90.63l66.393,-47.188l-45.543,82.305l-20.85,-35.117Z" style="fill:#b07324;fill-rule:nonzero;stroke:#b07324;stroke-width:0.83px;"/><path d="M67.947,125.747l-17.009,64.747l-69.685,-108.094l86.694,43.347Z" style="fill:#ac6f21;fill-rule:nonzero;stroke:#ac6f21;stroke-width:0.83px;"/><path d="M-53.315,188.848l104.253,1.646l-71.331,38.409l-32.922,-40.055Z" style="fill:#a97733;fill-rule:nonzero;stroke:#a97733;stroke-width:0.83px;"/><path d="M-26.429,687.616l-2.195,-59.808l88.89,27.984l-86.695,31.824Z" style="fill:#918b64;fill-rule:nonzero;stroke:#918b64;stroke-width:0.83px;"/><path d="M488.8,787.48l-63.1,27.435l27.984,-72.429l35.116,44.994Z" style="fill:#469e95;fill-rule:nonzero;stroke:#469e95;stroke-width:0.83px;"/><path d="M474.534,46.186l93.828,3.841l-3.841,58.711l-89.987,-62.552Z" style="fill:#716d46;fill-rule:nonzero;stroke:#716d46;stroke-width:0.83px;"/><path d="M564.521,108.738l66.393,-16.461l-51.578,60.357l-14.815,-43.896Z" style="fill:#6e653b;fill-rule:nonzero;stroke:#6e653b;stroke-width:0.83px;"/><path d="M427.895,-15.269l46.639,61.455l-68.039,-18.656l21.4,-42.799Z" style="fill:#8a8560;fill-rule:nonzero;stroke:#8a8560;stroke-width:0.83px;"/><path d="M370.281,-44.35l57.614,29.081l-21.4,42.799l-36.214,-71.88Z" style="fill:#8f8868;fill-rule:nonzero;stroke:#8f8868;stroke-width:0.83px;"/><path d="M275.356,819.304l-30.178,7.133l-5.487,-42.25l35.665,35.117Z" style="fill:#91b4a6;fill-rule:nonzero;stroke:#91b4a6;stroke-width:0.83px;"/><path d="M-10.517,725.477l-15.912,-37.861l86.695,-31.824l-70.783,69.685Z" style="fill:#8a845d;fill-rule:nonzero;stroke:#8a845d;stroke-width:0.83px;"/><path d="M271.515,845.642l-26.337,-19.205l30.178,-7.133l-3.841,26.338Z" style="fill:#8cafa5;fill-rule:nonzero;stroke:#8cafa5;stroke-width:0.83px;"/><path d="M568.362,50.027l62.552,42.25l-66.393,16.461l3.841,-58.711Z" style="fill:#675f37;fill-rule:nonzero;stroke:#675f37;stroke-width:0.83px;"/><path d="M425.7,814.915l-57.065,23.594l-13.169,-62.003l70.234,38.409Z" style="fill:#68aba3;fill-rule:nonzero;stroke:#68aba3;stroke-width:0.83px;"/><path d="M427.895,-15.269l25.789,-6.035l20.85,67.49l-46.639,-61.455Z" style="fill:#7e7d5a;fill-rule:nonzero;stroke:#7e7d5a;stroke-width:0.83px;"/><path d="M245.178,826.437l-86.695,-11.522l81.208,-30.728l5.487,42.25Z" style="fill:#93b09a;fill-rule:nonzero;stroke:#93b09a;stroke-width:0.83px;"/><path d="M245.178,826.437l-58.163,54.322l-28.532,-65.844l86.695,11.522Z" style="fill:#8aa389;fill-rule:nonzero;stroke:#8aa389;stroke-width:0.83px;"/><path d="M368.635,838.509l-97.12,7.133l3.841,-26.338l93.279,19.205Z" style="fill:#84aea8;fill-rule:nonzero;stroke:#84aea8;stroke-width:0.83px;"/><path d="M313.216,-11.976l57.065,-32.374l-18.107,96.571l-38.958,-64.197Z" style="fill:#a89374;fill-rule:nonzero;stroke:#a89374;stroke-width:0.83px;"/><path d="M-10.517,725.477l70.783,-69.685l23.045,52.675l-93.828,17.01Z" style="fill:#959064;fill-rule:nonzero;stroke:#959064;stroke-width:0.83px;"/><path d="M368.635,838.509l-91.084,54.321l-6.036,-47.188l97.12,-7.133Z" style="fill:#7fa8a2;fill-rule:nonzero;stroke:#7fa8a2;stroke-width:0.83px;"/><path d="M425.7,814.915l13.717,31.824l-70.782,-8.23l57.065,-23.594Z" style="fill:#549f96;fill-rule:nonzero;stroke:#549f96;stroke-width:0.83px;"/><path d="M488.8,787.48l-49.383,59.259l-13.717,-31.824l63.1,-27.435Z" style="fill:#41978d;fill-rule:nonzero;stroke:#41978d;stroke-width:0.83px;"/><path d="M500.872,863.749l-61.455,-17.01l49.383,-59.259l12.072,76.269Z" style="fill:#2f8981;fill-rule:nonzero;stroke:#2f8981;stroke-width:0.83px;"/><path d="M500.872,863.749l-12.072,-76.269l21.948,74.074l-9.876,2.195Z" style="fill:#207f77;fill-rule:nonzero;stroke:#207f77;stroke-width:0.83px;"/><path d="M113.49,43.442l19.204,-58.162l19.753,79.013l-38.957,-20.851Z" style="fill:#b0803d;fill-rule:nonzero;stroke:#b0803d;stroke-width:0.83px;"/><path d="M39.964,35.76l92.73,-50.48l-19.204,58.162l-73.526,-7.682Z" style="fill:#a46d27;fill-rule:nonzero;stroke:#a46d27;stroke-width:0.83px;"/><path d="M39.964,35.76l73.526,7.682l-66.393,47.188l-7.133,-54.87Z" style="fill:#a5681c;fill-rule:nonzero;stroke:#a5681c;stroke-width:0.83px;"/><path d="M158.483,814.915l-81.756,-17.559l66.941,-86.146l14.815,103.705Z" style="fill:#919e76;fill-rule:nonzero;stroke:#919e76;stroke-width:0.83px;"/><path d="M63.009,826.986l13.718,-29.63l81.756,17.559l-95.474,12.071Z" style="fill:#85885e;fill-rule:nonzero;stroke:#85885e;stroke-width:0.83px;"/><path d="M5.396,749.071l-15.913,-23.594l93.828,-17.01l-77.915,40.604Z" style="fill:#858159;fill-rule:nonzero;stroke:#858159;stroke-width:0.83px;"/><path d="M-18.747,82.4l58.711,-46.64l7.133,54.87l-65.844,-8.23Z" style="fill:#985c14;fill-rule:nonzero;stroke:#985c14;stroke-width:0.83px;"/><path d="M568.362,50.027l39.506,-24.143l23.046,66.393l-62.552,-42.25Z" style="fill:#5e542e;fill-rule:nonzero;stroke:#5e542e;stroke-width:0.83px;"/><path d="M567.265,-47.093l40.603,72.977l-39.506,24.143l-1.097,-97.12Z" style="fill:#565231;fill-rule:nonzero;stroke:#565231;stroke-width:0.83px;"/><path d="M132.694,-14.72l82.305,-37.86l32.922,83.951l-115.227,-46.091Z" style="fill:#b08b5a;fill-rule:nonzero;stroke:#b08b5a;stroke-width:0.83px;"/><path d="M76.727,797.356l-71.331,-48.285l77.915,-40.604l-6.584,88.889Z" style="fill:#88865b;fill-rule:nonzero;stroke:#88865b;stroke-width:0.83px;"/><path d="M-53.315,188.848l34.568,-106.448l69.685,108.094l-104.253,-1.646Z" style="fill:#a1681f;fill-rule:nonzero;stroke:#a1681f;stroke-width:0.83px;"/><path d="M574.946,740.84l1.646,85.597l-60.905,-52.675l59.259,-32.922Z" style="fill:#1a7971;fill-rule:nonzero;stroke:#1a7971;stroke-width:0.83px;"/><path d="M607.868,824.791l-31.276,1.646l-1.646,-85.597l32.922,83.951Z" style="fill:#126c63;fill-rule:nonzero;stroke:#126c63;stroke-width:0.83px;"/><path d="M370.281,894.476l-92.73,-1.646l91.084,-54.321l1.646,55.967Z" style="fill:#72a29b;fill-rule:nonzero;stroke:#72a29b;stroke-width:0.83px;"/><path d="M510.748,861.554l-21.948,-74.074l26.887,-13.718l-4.939,87.792Z" style="fill:#25857d;fill-rule:nonzero;stroke:#25857d;stroke-width:0.83px;"/><path d="M201.282,892.83l-14.267,-12.071l58.163,-54.322l-43.896,66.393Z" style="fill:#88a189;fill-rule:nonzero;stroke:#88a189;stroke-width:0.83px;"/><path d="M370.281,894.476l-1.646,-55.967l70.782,8.23l-69.136,47.737Z" style="fill:#5a9d93;fill-rule:nonzero;stroke:#5a9d93;stroke-width:0.83px;"/><path d="M421.859,949.346l-51.578,-54.87l69.136,-47.737l-17.558,102.607Z" style="fill:#4d9186;fill-rule:nonzero;stroke:#4d9186;stroke-width:0.83px;"/><path d="M500.872,863.749l2.743,32.373l-64.198,-49.383l61.455,17.01Z" style="fill:#277f76;fill-rule:nonzero;stroke:#277f76;stroke-width:0.83px;"/><path d="M576.592,826.437l-65.844,35.117l4.939,-87.792l60.905,52.675Z" style="fill:#18776f;fill-rule:nonzero;stroke:#18776f;stroke-width:0.83px;"/><path d="M201.282,892.83l43.896,-66.393l26.337,19.205l-70.233,47.188Z" style="fill:#89a796;fill-rule:nonzero;stroke:#89a796;stroke-width:0.83px;"/><path d="M42.707,821.499l-53.772,-47.188l16.461,-25.24l37.311,72.428Z" style="fill:#74704a;fill-rule:nonzero;stroke:#74704a;stroke-width:0.83px;"/><path d="M6.493,-20.756l111.386,-26.886l-77.915,83.402l-33.471,-56.516Z" style="fill:#8e5815;fill-rule:nonzero;stroke:#8e5815;stroke-width:0.83px;"/><path d="M39.964,35.76l77.915,-83.402l14.815,32.922l-92.73,50.48Z" style="fill:#9b6926;fill-rule:nonzero;stroke:#9b6926;stroke-width:0.83px;"/><path d="M78.373,876.918l-15.364,-49.932l95.474,-12.071l-80.11,62.003Z" style="fill:#808258;fill-rule:nonzero;stroke:#808258;stroke-width:0.83px;"/><path d="M42.707,821.499l-37.311,-72.428l71.331,48.285l-34.02,24.143Z" style="fill:#7b784f;fill-rule:nonzero;stroke:#7b784f;stroke-width:0.83px;"/><path d="M5.396,749.071l-16.461,25.24l0.548,-48.834l15.913,23.594Z" style="fill:#73724f;fill-rule:nonzero;stroke:#73724f;stroke-width:0.83px;"/><path d="M539.281,918.07l-35.666,-21.948l7.133,-34.568l28.533,56.516Z" style="fill:#156d64;fill-rule:nonzero;stroke:#156d64;stroke-width:0.83px;"/><path d="M621.586,649.756l-13.718,175.035l-32.922,-83.951l46.64,-91.084Z" style="fill:#22756b;fill-rule:nonzero;stroke:#22756b;stroke-width:0.83px;"/><path d="M187.015,880.759l-108.642,-3.841l80.11,-62.003l28.532,65.844Z" style="fill:#82906a;fill-rule:nonzero;stroke:#82906a;stroke-width:0.83px;"/><path d="M277.551,892.83l-76.269,0l70.233,-47.188l6.036,47.188Z" style="fill:#85a294;fill-rule:nonzero;stroke:#85a294;stroke-width:0.83px;"/><path d="M143.119,949.346l58.163,-56.516l76.269,0l-134.432,56.516Z" style="fill:#81957b;fill-rule:nonzero;stroke:#81957b;stroke-width:0.83px;"/><path d="M63.009,826.986l-20.302,-5.487l34.02,-24.143l-13.718,29.63Z" style="fill:#7c784d;fill-rule:nonzero;stroke:#7c784d;stroke-width:0.83px;"/><path d="M78.373,876.918l-35.666,-55.419l20.302,5.487l15.364,49.932Z" style="fill:#777248;fill-rule:nonzero;stroke:#777248;stroke-width:0.83px;"/><path d="M453.684,-21.304l113.581,-25.789l-92.731,93.279l-20.85,-67.49Z" style="fill:#686a4b;fill-rule:nonzero;stroke:#686a4b;stroke-width:0.83px;"/><path d="M567.265,-47.093l51.577,23.594l-10.974,49.383l-40.603,-72.977Z" style="fill:#4b492a;fill-rule:nonzero;stroke:#4b492a;stroke-width:0.83px;"/><path d="M370.281,894.476l51.578,54.87l-144.308,-56.516l92.73,1.646Z" style="fill:#67978f;fill-rule:nonzero;stroke:#67978f;stroke-width:0.83px;"/><path d="M510.748,861.554l-7.133,34.568l-2.743,-32.373l9.876,-2.195Z" style="fill:#1a766d;fill-rule:nonzero;stroke:#1a766d;stroke-width:0.83px;"/><path d="M539.281,918.07l-28.533,-56.516l65.844,-35.117l-37.311,91.633Z" style="fill:#0b6a61;fill-rule:nonzero;stroke:#0b6a61;stroke-width:0.83px;"/><path d="M-18.747,82.4l14.266,-82.305l44.445,35.665l-58.711,46.64Z" style="fill:#8a500a;fill-rule:nonzero;stroke:#8a500a;stroke-width:0.83px;"/><path d="M-4.481,0.095l10.974,-20.851l33.471,56.516l-44.445,-35.665Z" style="fill:#844d0b;fill-rule:nonzero;stroke:#844d0b;stroke-width:0.83px;"/><path d="M42.707,821.499l-50.48,18.107l-3.292,-65.295l53.772,47.188Z" style="fill:#6c6742;fill-rule:nonzero;stroke:#6c6742;stroke-width:0.83px;"/><path d="M143.119,949.346l-64.746,-72.428l108.642,3.841l-43.896,68.587Z" style="fill:#7b845c;fill-rule:nonzero;stroke:#7b845c;stroke-width:0.83px;"/><path d="M-4.481,0.095l-51.029,21.948l62.003,-42.799l-10.974,20.851Z" style="fill:#754408;fill-rule:nonzero;stroke:#754408;stroke-width:0.83px;"/><path d="M78.373,876.918l-86.146,-37.312l50.48,-18.107l35.666,55.419Z" style="fill:#6e6941;fill-rule:nonzero;stroke:#6e6941;stroke-width:0.83px;"/><path d="M503.615,896.122l-81.756,53.224l17.558,-102.607l64.198,49.383Z" style="fill:#358278;fill-rule:nonzero;stroke:#358278;stroke-width:0.83px;"/><path d="M201.282,892.83l-58.163,56.516l43.896,-68.587l14.267,12.071Z" style="fill:#7f8e6f;fill-rule:nonzero;stroke:#7f8e6f;stroke-width:0.83px;"/><path d="M608.417,919.716l-69.136,-1.646l37.311,-91.633l31.825,93.279Z" style="fill:#015b51;fill-rule:nonzero;stroke:#015b51;stroke-width:0.83px;"/><path d="M503.615,896.122l35.666,21.948l-117.422,31.276l81.756,-53.224Z" style="fill:#1f7167;fill-rule:nonzero;stroke:#1f7167;stroke-width:0.83px;"/><path d="M421.859,949.346l-278.74,0l134.432,-56.516l144.308,56.516Z" style="fill:#7d9990;fill-rule:nonzero;stroke:#7d9990;stroke-width:0.83px;"/><path d="M78.373,876.918l-71.331,44.993l-14.815,-82.305l86.146,37.312Z" style="fill:#655e37;fill-rule:nonzero;stroke:#655e37;stroke-width:0.83px;"/><path d="M607.868,824.791l0.549,94.925l-31.825,-93.279l31.276,-1.646Z" style="fill:#015a51;fill-rule:nonzero;stroke:#015a51;stroke-width:0.83px;"/><path d="M143.119,949.346l-54.87,-4.938l-9.876,-67.49l64.746,72.428Z" style="fill:#737146;fill-rule:nonzero;stroke:#737146;stroke-width:0.83px;"/><path d="M88.249,944.408l-81.207,-22.497l71.331,-44.993l9.876,67.49Z" style="fill:#6a6136;fill-rule:nonzero;stroke:#6a6136;stroke-width:0.83px;"/><path d="M7.042,921.911l-38.409,-15.363l23.594,-66.942l14.815,82.305Z" style="fill:#56512f;fill-rule:nonzero;stroke:#56512f;stroke-width:0.83px;"/></g></svg>