<?xml version="1.0" encoding="UTF-8" standalone="no"?><!DOCTYPE svg PUBLIC "-//W3C//DTD SVG 1.1//EN" "http://www.w3.org/Graphics/SVG/1.1/DTD/svg11.dtd"><svg width="100%" height="100%" viewBox="0 0 63 63" version="1.1" xmlns="http://www.w3.org/2000/svg" xmlns:xlink="http://www.w3.org/1999/xlink" xml:space="preserve" xmlns:serif="http://www.serif.com/" style="fill-rule:evenodd;clip-rule:evenodd;stroke-linejoin:round;stroke-miterlimit:1.41421;"><rect id="Artboard" x="-127" y="-35" width="337.67" height="184.618" style="fill:none;"/><path d="M58.43,33.314l0,-1.02c0.019,-1.486 -1.04,-2.785 -2.5,-3.067c-0.503,-0.082 -1.019,-0.037 -1.5,0.132l0,-0.065c0.019,-1.486 -1.04,-2.785 -2.5,-3.067c-1.512,-0.252 -2.987,0.692 -3.392,2.171c-0.508,-0.199 -1.061,-0.258 -1.6,-0.171c-0.199,0.035 -0.393,0.091 -0.58,0.167c-0.506,-2.387 -2.502,-4.189 -4.928,-4.451l0,-4.756c0,-1.978 -1.54,-3.644 -3.512,-3.8c-0.849,-0.072 -1.701,0.111 -2.446,0.526c-0.239,-2.028 -1.916,-3.607 -3.955,-3.726c-1.011,-0.099 -2.018,0.239 -2.764,0.929c-0.545,0.51 -0.943,1.157 -1.15,1.874c-0.785,-0.52 -1.723,-0.76 -2.661,-0.68c-1.993,0.175 -3.535,1.877 -3.512,3.877l0,12.078c-0.794,0.131 -1.555,0.41 -2.245,0.824c-0.377,-0.968 -1.232,-1.674 -2.255,-1.862c-0.503,-0.082 -1.019,-0.037 -1.5,0.132l0,-0.065c0.019,-1.486 -1.04,-2.785 -2.5,-3.067c-1.512,-0.252 -2.987,0.692 -3.392,2.171c-0.508,-0.199 -1.061,-0.258 -1.6,-0.171c-1.463,0.278 -2.526,1.578 -2.508,3.067l0,4.993c-2.318,0.477 -3.997,2.534 -4,4.9l0,4.219c0.002,1.984 0.464,3.941 1.349,5.716l2.033,4.065l-0.382,0c-0.549,0 -1,0.452 -1,1l0,4c0,0.549 0.451,1 1,1l55,0c0.549,0 1,-0.451 1,-1l0,-4c-0.005,-0.526 -0.424,-0.963 -0.949,-0.99c0.067,-0.734 0.21,-1.459 0.426,-2.164l0.59,-1.912c0.619,-2.001 0.933,-4.084 0.933,-6.179l0,-7.755c-0.002,-1.817 -1.241,-3.416 -3,-3.873Zm-11.175,-3.112c0.058,-0.01 0.116,-0.015 0.175,-0.015c0.549,0 1,0.451 1,1l0,12l2,0l0,-14c0,0 0,0 0,0c0,-0.549 0.451,-1 1,-1c0.059,0 0.117,0.005 0.175,0.015c0.497,0.122 0.844,0.581 0.825,1.092l0,13.893l2,0l0,-11c0,0 0,0 0,0c0,-0.549 0.451,-1 1,-1c0.059,0 0.117,0.005 0.175,0.015c0.497,0.122 0.844,0.581 0.825,1.092l0,10.893l2,0l0,-7.722c0.616,0.354 0.998,1.012 1,1.722l0,7.755c0,1.895 -0.284,3.779 -0.844,5.589l-0.591,1.912c-0.276,0.893 -0.452,1.813 -0.525,2.744l-10.04,0l0,-1c0,-0.548 -0.451,-1 -1,-1l-0.881,0l0.875,-7.762c0.004,-0.037 0.006,-0.074 0.006,-0.112l0,-14.019c-0.019,-0.511 0.328,-0.97 0.825,-1.092Zm-25.825,2.115l0,5.623l2,0l0,-19.753c-0.013,-0.965 0.726,-1.789 1.687,-1.881c0.616,-0.044 1.223,0.168 1.678,0.585c0.383,0.325 0.613,0.795 0.635,1.296l0,16l2,0l0,-18c-0.001,-0.6 0.243,-1.175 0.674,-1.592c0.333,-0.31 0.787,-0.46 1.239,-0.408c1.1,0.1 2.13,0.97 2.13,1.785l-0.016,1.181l-0.027,0l0,17.034l2,0l0,-15.041c0.033,-0.46 0.249,-0.889 0.6,-1.189c0.465,-0.425 1.087,-0.636 1.715,-0.582c0.948,0.061 1.693,0.862 1.685,1.812l0,15l2,0l0,-8.2c1.602,0.233 2.847,1.541 3,3.152l0,16.117l-0.894,7.931l-22.406,0l-0.571,-1.562c-1.41,-3.849 -2.131,-7.916 -2.129,-12.016l0,-4.057c0.002,-0.208 0.028,-0.416 0.079,-0.618c0.026,-0.091 0.058,-0.182 0.094,-0.27c0.033,-0.093 0.064,-0.185 0.106,-0.275c0.053,-0.107 0.111,-0.212 0.175,-0.313c0.034,-0.055 0.07,-0.109 0.107,-0.162c0.067,-0.094 0.135,-0.188 0.2,-0.265c0,-0.006 0.006,-0.013 0.011,-0.018c0.587,-0.66 1.366,-1.119 2.228,-1.314Zm-16.862,17.91c-0.746,-1.497 -1.136,-3.147 -1.138,-4.821l0,-4.219c0.005,-1.263 0.809,-2.394 2,-2.816l0,6.816l2,0l0,-13.893c-0.019,-0.511 0.328,-0.97 0.825,-1.092c0.058,-0.01 0.116,-0.015 0.175,-0.015c0.549,0 1,0.451 1,1l0,12l2,0l0,-14c0,0 0,0 0,0c0,-0.549 0.451,-1 1,-1c0.059,0 0.117,0.005 0.175,0.015c0.497,0.122 0.844,0.581 0.825,1.092l0,13.893l2,0l0,-11c0,-0.293 0.129,-0.573 0.353,-0.763c0.226,-0.194 0.529,-0.276 0.822,-0.222c0.497,0.122 0.844,0.581 0.825,1.092l0,0.358c-0.007,0.009 -0.012,0.02 -0.019,0.029c-0.111,0.156 -0.214,0.318 -0.308,0.485c-0.059,0.1 -0.116,0.2 -0.168,0.308c-0.065,0.134 -0.125,0.27 -0.179,0.409c-0.06,0.159 -0.111,0.322 -0.154,0.486c-0.028,0.106 -0.061,0.21 -0.082,0.319c-0.057,0.285 -0.088,0.574 -0.09,0.864l0,4.057c-0.002,4.333 0.76,8.632 2.25,12.7l0.319,0.874l-0.569,0c-0.549,0 -1,0.452 -1,1l0,1l-10.382,0l-2.48,-4.956Zm0.862,6.96l12,0l0,2l-12,0l0,-2Zm14,-1l0,-1l26,0l0,4l-26,0l0,-3Zm39,3l-11,0l0,-2l11,0l0,2Z" style="fill:#fff;fill-rule:nonzero;"/><path d="M10.975,24.414c2.213,-9.471 10.729,-16.226 20.455,-16.226c9.726,0 18.242,6.755 20.455,16.226l1.948,-0.454c-2.423,-10.374 -11.75,-17.773 -22.403,-17.773c-10.653,0 -19.98,7.399 -22.403,17.773l1.948,0.454Z" style="fill:#fff;fill-rule:nonzero;"/><rect x="30.43" y="1.187" width="2" height="3" style="fill:#fff;"/><rect x="55.43" y="22.187" width="3" height="2" style="fill:#fff;"/><rect x="4.43" y="22.187" width="3" height="2" style="fill:#fff;"/><path d="M14.138,6.359l-1.414,1.415l2.121,2.121l1.414,-1.414l-2.121,-2.122Z" style="fill:#fff;"/><path d="M47.844,6.359l-2.121,2.121l1.414,1.414l2.122,-2.121l-1.415,-1.414Z" style="fill:#fff;"/></svg>